G04 #@! TF.GenerationSoftware,KiCad,Pcbnew,(5.1.5)-3*
G04 #@! TF.CreationDate,2020-02-23T08:40:35-08:00*
G04 #@! TF.ProjectId,ESP-07,4553502d-3037-42e6-9b69-6361645f7063,rev?*
G04 #@! TF.SameCoordinates,Original*
G04 #@! TF.FileFunction,Legend,Top*
G04 #@! TF.FilePolarity,Positive*
%FSLAX46Y46*%
G04 Gerber Fmt 4.6, Leading zero omitted, Abs format (unit mm)*
G04 Created by KiCad (PCBNEW (5.1.5)-3) date 2020-02-23 08:40:35*
%MOMM*%
%LPD*%
G04 APERTURE LIST*
%ADD10C,0.150000*%
%ADD11C,0.120000*%
%ADD12C,0.108000*%
G04 APERTURE END LIST*
D10*
X165608000Y-118491000D02*
X168148000Y-118491000D01*
X156655952Y-116468380D02*
X156655952Y-115468380D01*
X157227380Y-116468380D01*
X157227380Y-115468380D01*
X157846428Y-116468380D02*
X157751190Y-116420761D01*
X157703571Y-116373142D01*
X157655952Y-116277904D01*
X157655952Y-115992190D01*
X157703571Y-115896952D01*
X157751190Y-115849333D01*
X157846428Y-115801714D01*
X157989285Y-115801714D01*
X158084523Y-115849333D01*
X158132142Y-115896952D01*
X158179761Y-115992190D01*
X158179761Y-116277904D01*
X158132142Y-116373142D01*
X158084523Y-116420761D01*
X157989285Y-116468380D01*
X157846428Y-116468380D01*
X159370238Y-115801714D02*
X159370238Y-116468380D01*
X159370238Y-115896952D02*
X159417857Y-115849333D01*
X159513095Y-115801714D01*
X159655952Y-115801714D01*
X159751190Y-115849333D01*
X159798809Y-115944571D01*
X159798809Y-116468380D01*
X160655952Y-116420761D02*
X160560714Y-116468380D01*
X160370238Y-116468380D01*
X160275000Y-116420761D01*
X160227380Y-116325523D01*
X160227380Y-115944571D01*
X160275000Y-115849333D01*
X160370238Y-115801714D01*
X160560714Y-115801714D01*
X160655952Y-115849333D01*
X160703571Y-115944571D01*
X160703571Y-116039809D01*
X160227380Y-116135047D01*
X161513095Y-116420761D02*
X161417857Y-116468380D01*
X161227380Y-116468380D01*
X161132142Y-116420761D01*
X161084523Y-116325523D01*
X161084523Y-115944571D01*
X161132142Y-115849333D01*
X161227380Y-115801714D01*
X161417857Y-115801714D01*
X161513095Y-115849333D01*
X161560714Y-115944571D01*
X161560714Y-116039809D01*
X161084523Y-116135047D01*
X162417857Y-116468380D02*
X162417857Y-115468380D01*
X162417857Y-116420761D02*
X162322619Y-116468380D01*
X162132142Y-116468380D01*
X162036904Y-116420761D01*
X161989285Y-116373142D01*
X161941666Y-116277904D01*
X161941666Y-115992190D01*
X161989285Y-115896952D01*
X162036904Y-115849333D01*
X162132142Y-115801714D01*
X162322619Y-115801714D01*
X162417857Y-115849333D01*
X163513095Y-115801714D02*
X163894047Y-115801714D01*
X163655952Y-115468380D02*
X163655952Y-116325523D01*
X163703571Y-116420761D01*
X163798809Y-116468380D01*
X163894047Y-116468380D01*
X164370238Y-116468380D02*
X164275000Y-116420761D01*
X164227380Y-116373142D01*
X164179761Y-116277904D01*
X164179761Y-115992190D01*
X164227380Y-115896952D01*
X164275000Y-115849333D01*
X164370238Y-115801714D01*
X164513095Y-115801714D01*
X164608333Y-115849333D01*
X164655952Y-115896952D01*
X164703571Y-115992190D01*
X164703571Y-116277904D01*
X164655952Y-116373142D01*
X164608333Y-116420761D01*
X164513095Y-116468380D01*
X164370238Y-116468380D01*
X166322619Y-116420761D02*
X166227380Y-116468380D01*
X166036904Y-116468380D01*
X165941666Y-116420761D01*
X165894047Y-116373142D01*
X165846428Y-116277904D01*
X165846428Y-115992190D01*
X165894047Y-115896952D01*
X165941666Y-115849333D01*
X166036904Y-115801714D01*
X166227380Y-115801714D01*
X166322619Y-115849333D01*
X166751190Y-116468380D02*
X166751190Y-115468380D01*
X167179761Y-116468380D02*
X167179761Y-115944571D01*
X167132142Y-115849333D01*
X167036904Y-115801714D01*
X166894047Y-115801714D01*
X166798809Y-115849333D01*
X166751190Y-115896952D01*
X168084523Y-116468380D02*
X168084523Y-115944571D01*
X168036904Y-115849333D01*
X167941666Y-115801714D01*
X167751190Y-115801714D01*
X167655952Y-115849333D01*
X168084523Y-116420761D02*
X167989285Y-116468380D01*
X167751190Y-116468380D01*
X167655952Y-116420761D01*
X167608333Y-116325523D01*
X167608333Y-116230285D01*
X167655952Y-116135047D01*
X167751190Y-116087428D01*
X167989285Y-116087428D01*
X168084523Y-116039809D01*
X168560714Y-115801714D02*
X168560714Y-116468380D01*
X168560714Y-115896952D02*
X168608333Y-115849333D01*
X168703571Y-115801714D01*
X168846428Y-115801714D01*
X168941666Y-115849333D01*
X168989285Y-115944571D01*
X168989285Y-116468380D01*
X169894047Y-115801714D02*
X169894047Y-116611238D01*
X169846428Y-116706476D01*
X169798809Y-116754095D01*
X169703571Y-116801714D01*
X169560714Y-116801714D01*
X169465476Y-116754095D01*
X169894047Y-116420761D02*
X169798809Y-116468380D01*
X169608333Y-116468380D01*
X169513095Y-116420761D01*
X169465476Y-116373142D01*
X169417857Y-116277904D01*
X169417857Y-115992190D01*
X169465476Y-115896952D01*
X169513095Y-115849333D01*
X169608333Y-115801714D01*
X169798809Y-115801714D01*
X169894047Y-115849333D01*
X170751190Y-116420761D02*
X170655952Y-116468380D01*
X170465476Y-116468380D01*
X170370238Y-116420761D01*
X170322619Y-116325523D01*
X170322619Y-115944571D01*
X170370238Y-115849333D01*
X170465476Y-115801714D01*
X170655952Y-115801714D01*
X170751190Y-115849333D01*
X170798809Y-115944571D01*
X170798809Y-116039809D01*
X170322619Y-116135047D01*
X171846428Y-115801714D02*
X172227380Y-115801714D01*
X171989285Y-115468380D02*
X171989285Y-116325523D01*
X172036904Y-116420761D01*
X172132142Y-116468380D01*
X172227380Y-116468380D01*
X172560714Y-116468380D02*
X172560714Y-115468380D01*
X172989285Y-116468380D02*
X172989285Y-115944571D01*
X172941666Y-115849333D01*
X172846428Y-115801714D01*
X172703571Y-115801714D01*
X172608333Y-115849333D01*
X172560714Y-115896952D01*
X173846428Y-116420761D02*
X173751190Y-116468380D01*
X173560714Y-116468380D01*
X173465476Y-116420761D01*
X173417857Y-116325523D01*
X173417857Y-115944571D01*
X173465476Y-115849333D01*
X173560714Y-115801714D01*
X173751190Y-115801714D01*
X173846428Y-115849333D01*
X173894047Y-115944571D01*
X173894047Y-116039809D01*
X173417857Y-116135047D01*
X175036904Y-116420761D02*
X175132142Y-116468380D01*
X175322619Y-116468380D01*
X175417857Y-116420761D01*
X175465476Y-116325523D01*
X175465476Y-116277904D01*
X175417857Y-116182666D01*
X175322619Y-116135047D01*
X175179761Y-116135047D01*
X175084523Y-116087428D01*
X175036904Y-115992190D01*
X175036904Y-115944571D01*
X175084523Y-115849333D01*
X175179761Y-115801714D01*
X175322619Y-115801714D01*
X175417857Y-115849333D01*
X175894047Y-116468380D02*
X175894047Y-115468380D01*
X175989285Y-116087428D02*
X176275000Y-116468380D01*
X176275000Y-115801714D02*
X175894047Y-116182666D01*
X177084523Y-116420761D02*
X176989285Y-116468380D01*
X176798809Y-116468380D01*
X176703571Y-116420761D01*
X176655952Y-116325523D01*
X176655952Y-115944571D01*
X176703571Y-115849333D01*
X176798809Y-115801714D01*
X176989285Y-115801714D01*
X177084523Y-115849333D01*
X177132142Y-115944571D01*
X177132142Y-116039809D01*
X176655952Y-116135047D01*
X177417857Y-115801714D02*
X177798809Y-115801714D01*
X177560714Y-115468380D02*
X177560714Y-116325523D01*
X177608333Y-116420761D01*
X177703571Y-116468380D01*
X177798809Y-116468380D01*
X178560714Y-116420761D02*
X178465476Y-116468380D01*
X178275000Y-116468380D01*
X178179761Y-116420761D01*
X178132142Y-116373142D01*
X178084523Y-116277904D01*
X178084523Y-115992190D01*
X178132142Y-115896952D01*
X178179761Y-115849333D01*
X178275000Y-115801714D01*
X178465476Y-115801714D01*
X178560714Y-115849333D01*
X178989285Y-116468380D02*
X178989285Y-115468380D01*
X179417857Y-116468380D02*
X179417857Y-115944571D01*
X179370238Y-115849333D01*
X179275000Y-115801714D01*
X179132142Y-115801714D01*
X179036904Y-115849333D01*
X178989285Y-115896952D01*
X179894047Y-116373142D02*
X179941666Y-116420761D01*
X179894047Y-116468380D01*
X179846428Y-116420761D01*
X179894047Y-116373142D01*
X179894047Y-116468380D01*
X155489285Y-117118380D02*
X156060714Y-117118380D01*
X155775000Y-118118380D02*
X155775000Y-117118380D01*
X156394047Y-118118380D02*
X156394047Y-117118380D01*
X156822619Y-118118380D02*
X156822619Y-117594571D01*
X156775000Y-117499333D01*
X156679761Y-117451714D01*
X156536904Y-117451714D01*
X156441666Y-117499333D01*
X156394047Y-117546952D01*
X157298809Y-118118380D02*
X157298809Y-117451714D01*
X157298809Y-117118380D02*
X157251190Y-117166000D01*
X157298809Y-117213619D01*
X157346428Y-117166000D01*
X157298809Y-117118380D01*
X157298809Y-117213619D01*
X157727380Y-118070761D02*
X157822619Y-118118380D01*
X158013095Y-118118380D01*
X158108333Y-118070761D01*
X158155952Y-117975523D01*
X158155952Y-117927904D01*
X158108333Y-117832666D01*
X158013095Y-117785047D01*
X157870238Y-117785047D01*
X157775000Y-117737428D01*
X157727380Y-117642190D01*
X157727380Y-117594571D01*
X157775000Y-117499333D01*
X157870238Y-117451714D01*
X158013095Y-117451714D01*
X158108333Y-117499333D01*
X159775000Y-118118380D02*
X159775000Y-117594571D01*
X159727380Y-117499333D01*
X159632142Y-117451714D01*
X159441666Y-117451714D01*
X159346428Y-117499333D01*
X159775000Y-118070761D02*
X159679761Y-118118380D01*
X159441666Y-118118380D01*
X159346428Y-118070761D01*
X159298809Y-117975523D01*
X159298809Y-117880285D01*
X159346428Y-117785047D01*
X159441666Y-117737428D01*
X159679761Y-117737428D01*
X159775000Y-117689809D01*
X160679761Y-118118380D02*
X160679761Y-117118380D01*
X160679761Y-118070761D02*
X160584523Y-118118380D01*
X160394047Y-118118380D01*
X160298809Y-118070761D01*
X160251190Y-118023142D01*
X160203571Y-117927904D01*
X160203571Y-117642190D01*
X160251190Y-117546952D01*
X160298809Y-117499333D01*
X160394047Y-117451714D01*
X160584523Y-117451714D01*
X160679761Y-117499333D01*
X161584523Y-118118380D02*
X161584523Y-117594571D01*
X161536904Y-117499333D01*
X161441666Y-117451714D01*
X161251190Y-117451714D01*
X161155952Y-117499333D01*
X161584523Y-118070761D02*
X161489285Y-118118380D01*
X161251190Y-118118380D01*
X161155952Y-118070761D01*
X161108333Y-117975523D01*
X161108333Y-117880285D01*
X161155952Y-117785047D01*
X161251190Y-117737428D01*
X161489285Y-117737428D01*
X161584523Y-117689809D01*
X162060714Y-117451714D02*
X162060714Y-118451714D01*
X162060714Y-117499333D02*
X162155952Y-117451714D01*
X162346428Y-117451714D01*
X162441666Y-117499333D01*
X162489285Y-117546952D01*
X162536904Y-117642190D01*
X162536904Y-117927904D01*
X162489285Y-118023142D01*
X162441666Y-118070761D01*
X162346428Y-118118380D01*
X162155952Y-118118380D01*
X162060714Y-118070761D01*
X162822619Y-117451714D02*
X163203571Y-117451714D01*
X162965476Y-117118380D02*
X162965476Y-117975523D01*
X163013095Y-118070761D01*
X163108333Y-118118380D01*
X163203571Y-118118380D01*
X163917857Y-118070761D02*
X163822619Y-118118380D01*
X163632142Y-118118380D01*
X163536904Y-118070761D01*
X163489285Y-117975523D01*
X163489285Y-117594571D01*
X163536904Y-117499333D01*
X163632142Y-117451714D01*
X163822619Y-117451714D01*
X163917857Y-117499333D01*
X163965476Y-117594571D01*
X163965476Y-117689809D01*
X163489285Y-117785047D01*
X164394047Y-118118380D02*
X164394047Y-117451714D01*
X164394047Y-117642190D02*
X164441666Y-117546952D01*
X164489285Y-117499333D01*
X164584523Y-117451714D01*
X164679761Y-117451714D01*
X166203571Y-118118380D02*
X166203571Y-117118380D01*
X166203571Y-118070761D02*
X166108333Y-118118380D01*
X165917857Y-118118380D01*
X165822619Y-118070761D01*
X165775000Y-118023142D01*
X165727380Y-117927904D01*
X165727380Y-117642190D01*
X165775000Y-117546952D01*
X165822619Y-117499333D01*
X165917857Y-117451714D01*
X166108333Y-117451714D01*
X166203571Y-117499333D01*
X166679761Y-118118380D02*
X166679761Y-117451714D01*
X166679761Y-117118380D02*
X166632142Y-117166000D01*
X166679761Y-117213619D01*
X166727380Y-117166000D01*
X166679761Y-117118380D01*
X166679761Y-117213619D01*
X167108333Y-118070761D02*
X167203571Y-118118380D01*
X167394047Y-118118380D01*
X167489285Y-118070761D01*
X167536904Y-117975523D01*
X167536904Y-117927904D01*
X167489285Y-117832666D01*
X167394047Y-117785047D01*
X167251190Y-117785047D01*
X167155952Y-117737428D01*
X167108333Y-117642190D01*
X167108333Y-117594571D01*
X167155952Y-117499333D01*
X167251190Y-117451714D01*
X167394047Y-117451714D01*
X167489285Y-117499333D01*
X168394047Y-118118380D02*
X168394047Y-117594571D01*
X168346428Y-117499333D01*
X168251190Y-117451714D01*
X168060714Y-117451714D01*
X167965476Y-117499333D01*
X168394047Y-118070761D02*
X168298809Y-118118380D01*
X168060714Y-118118380D01*
X167965476Y-118070761D01*
X167917857Y-117975523D01*
X167917857Y-117880285D01*
X167965476Y-117785047D01*
X168060714Y-117737428D01*
X168298809Y-117737428D01*
X168394047Y-117689809D01*
X168870238Y-118118380D02*
X168870238Y-117118380D01*
X168870238Y-117499333D02*
X168965476Y-117451714D01*
X169155952Y-117451714D01*
X169251190Y-117499333D01*
X169298809Y-117546952D01*
X169346428Y-117642190D01*
X169346428Y-117927904D01*
X169298809Y-118023142D01*
X169251190Y-118070761D01*
X169155952Y-118118380D01*
X168965476Y-118118380D01*
X168870238Y-118070761D01*
X169917857Y-118118380D02*
X169822619Y-118070761D01*
X169775000Y-117975523D01*
X169775000Y-117118380D01*
X170679761Y-118070761D02*
X170584523Y-118118380D01*
X170394047Y-118118380D01*
X170298809Y-118070761D01*
X170251190Y-117975523D01*
X170251190Y-117594571D01*
X170298809Y-117499333D01*
X170394047Y-117451714D01*
X170584523Y-117451714D01*
X170679761Y-117499333D01*
X170727380Y-117594571D01*
X170727380Y-117689809D01*
X170251190Y-117785047D01*
X171108333Y-118070761D02*
X171203571Y-118118380D01*
X171394047Y-118118380D01*
X171489285Y-118070761D01*
X171536904Y-117975523D01*
X171536904Y-117927904D01*
X171489285Y-117832666D01*
X171394047Y-117785047D01*
X171251190Y-117785047D01*
X171155952Y-117737428D01*
X171108333Y-117642190D01*
X171108333Y-117594571D01*
X171155952Y-117499333D01*
X171251190Y-117451714D01*
X171394047Y-117451714D01*
X171489285Y-117499333D01*
X172584523Y-117451714D02*
X172965476Y-117451714D01*
X172727380Y-117118380D02*
X172727380Y-117975523D01*
X172775000Y-118070761D01*
X172870238Y-118118380D01*
X172965476Y-118118380D01*
X173298809Y-118118380D02*
X173298809Y-117118380D01*
X173727380Y-118118380D02*
X173727380Y-117594571D01*
X173679761Y-117499333D01*
X173584523Y-117451714D01*
X173441666Y-117451714D01*
X173346428Y-117499333D01*
X173298809Y-117546952D01*
X174584523Y-118070761D02*
X174489285Y-118118380D01*
X174298809Y-118118380D01*
X174203571Y-118070761D01*
X174155952Y-117975523D01*
X174155952Y-117594571D01*
X174203571Y-117499333D01*
X174298809Y-117451714D01*
X174489285Y-117451714D01*
X174584523Y-117499333D01*
X174632142Y-117594571D01*
X174632142Y-117689809D01*
X174155952Y-117785047D01*
X175775000Y-117832666D02*
X176251190Y-117832666D01*
X175679761Y-118118380D02*
X176013095Y-117118380D01*
X176346428Y-118118380D01*
X176679761Y-118118380D02*
X176679761Y-117451714D01*
X176679761Y-117642190D02*
X176727380Y-117546952D01*
X176775000Y-117499333D01*
X176870238Y-117451714D01*
X176965476Y-117451714D01*
X177727380Y-118118380D02*
X177727380Y-117118380D01*
X177727380Y-118070761D02*
X177632142Y-118118380D01*
X177441666Y-118118380D01*
X177346428Y-118070761D01*
X177298809Y-118023142D01*
X177251190Y-117927904D01*
X177251190Y-117642190D01*
X177298809Y-117546952D01*
X177346428Y-117499333D01*
X177441666Y-117451714D01*
X177632142Y-117451714D01*
X177727380Y-117499333D01*
X178632142Y-117451714D02*
X178632142Y-118118380D01*
X178203571Y-117451714D02*
X178203571Y-117975523D01*
X178251190Y-118070761D01*
X178346428Y-118118380D01*
X178489285Y-118118380D01*
X178584523Y-118070761D01*
X178632142Y-118023142D01*
X179108333Y-118118380D02*
X179108333Y-117451714D01*
X179108333Y-117118380D02*
X179060714Y-117166000D01*
X179108333Y-117213619D01*
X179155952Y-117166000D01*
X179108333Y-117118380D01*
X179108333Y-117213619D01*
X179584523Y-117451714D02*
X179584523Y-118118380D01*
X179584523Y-117546952D02*
X179632142Y-117499333D01*
X179727380Y-117451714D01*
X179870238Y-117451714D01*
X179965476Y-117499333D01*
X180013095Y-117594571D01*
X180013095Y-118118380D01*
X180632142Y-118118380D02*
X180536904Y-118070761D01*
X180489285Y-118023142D01*
X180441666Y-117927904D01*
X180441666Y-117642190D01*
X180489285Y-117546952D01*
X180536904Y-117499333D01*
X180632142Y-117451714D01*
X180775000Y-117451714D01*
X180870238Y-117499333D01*
X180917857Y-117546952D01*
X180965476Y-117642190D01*
X180965476Y-117927904D01*
X180917857Y-118023142D01*
X180870238Y-118070761D01*
X180775000Y-118118380D01*
X180632142Y-118118380D01*
X155513095Y-119768380D02*
X155513095Y-118768380D01*
X155513095Y-119149333D02*
X155608333Y-119101714D01*
X155798809Y-119101714D01*
X155894047Y-119149333D01*
X155941666Y-119196952D01*
X155989285Y-119292190D01*
X155989285Y-119577904D01*
X155941666Y-119673142D01*
X155894047Y-119720761D01*
X155798809Y-119768380D01*
X155608333Y-119768380D01*
X155513095Y-119720761D01*
X156322619Y-119101714D02*
X156560714Y-119768380D01*
X156798809Y-119101714D02*
X156560714Y-119768380D01*
X156465476Y-120006476D01*
X156417857Y-120054095D01*
X156322619Y-120101714D01*
X157846428Y-119101714D02*
X158036904Y-119768380D01*
X158227380Y-119292190D01*
X158417857Y-119768380D01*
X158608333Y-119101714D01*
X158989285Y-119768380D02*
X158989285Y-119101714D01*
X158989285Y-118768380D02*
X158941666Y-118816000D01*
X158989285Y-118863619D01*
X159036904Y-118816000D01*
X158989285Y-118768380D01*
X158989285Y-118863619D01*
X159465476Y-119768380D02*
X159465476Y-119101714D01*
X159465476Y-119292190D02*
X159513095Y-119196952D01*
X159560714Y-119149333D01*
X159655952Y-119101714D01*
X159751190Y-119101714D01*
X160084523Y-119768380D02*
X160084523Y-119101714D01*
X160084523Y-118768380D02*
X160036904Y-118816000D01*
X160084523Y-118863619D01*
X160132142Y-118816000D01*
X160084523Y-118768380D01*
X160084523Y-118863619D01*
X160560714Y-119101714D02*
X160560714Y-119768380D01*
X160560714Y-119196952D02*
X160608333Y-119149333D01*
X160703571Y-119101714D01*
X160846428Y-119101714D01*
X160941666Y-119149333D01*
X160989285Y-119244571D01*
X160989285Y-119768380D01*
X161894047Y-119101714D02*
X161894047Y-119911238D01*
X161846428Y-120006476D01*
X161798809Y-120054095D01*
X161703571Y-120101714D01*
X161560714Y-120101714D01*
X161465476Y-120054095D01*
X161894047Y-119720761D02*
X161798809Y-119768380D01*
X161608333Y-119768380D01*
X161513095Y-119720761D01*
X161465476Y-119673142D01*
X161417857Y-119577904D01*
X161417857Y-119292190D01*
X161465476Y-119196952D01*
X161513095Y-119149333D01*
X161608333Y-119101714D01*
X161798809Y-119101714D01*
X161894047Y-119149333D01*
X163132142Y-119768380D02*
X163132142Y-119101714D01*
X163132142Y-118768380D02*
X163084523Y-118816000D01*
X163132142Y-118863619D01*
X163179761Y-118816000D01*
X163132142Y-118768380D01*
X163132142Y-118863619D01*
X163465476Y-119101714D02*
X163846428Y-119101714D01*
X163608333Y-118768380D02*
X163608333Y-119625523D01*
X163655952Y-119720761D01*
X163751190Y-119768380D01*
X163846428Y-119768380D01*
X164132142Y-119720761D02*
X164227380Y-119768380D01*
X164417857Y-119768380D01*
X164513095Y-119720761D01*
X164560714Y-119625523D01*
X164560714Y-119577904D01*
X164513095Y-119482666D01*
X164417857Y-119435047D01*
X164275000Y-119435047D01*
X164179761Y-119387428D01*
X164132142Y-119292190D01*
X164132142Y-119244571D01*
X164179761Y-119149333D01*
X164275000Y-119101714D01*
X164417857Y-119101714D01*
X164513095Y-119149333D01*
X166322619Y-119768380D02*
X165989285Y-119292190D01*
X165751190Y-119768380D02*
X165751190Y-118768380D01*
X166132142Y-118768380D01*
X166227380Y-118816000D01*
X166275000Y-118863619D01*
X166322619Y-118958857D01*
X166322619Y-119101714D01*
X166275000Y-119196952D01*
X166227380Y-119244571D01*
X166132142Y-119292190D01*
X165751190Y-119292190D01*
X166703571Y-119720761D02*
X166846428Y-119768380D01*
X167084523Y-119768380D01*
X167179761Y-119720761D01*
X167227380Y-119673142D01*
X167275000Y-119577904D01*
X167275000Y-119482666D01*
X167227380Y-119387428D01*
X167179761Y-119339809D01*
X167084523Y-119292190D01*
X166894047Y-119244571D01*
X166798809Y-119196952D01*
X166751190Y-119149333D01*
X166703571Y-119054095D01*
X166703571Y-118958857D01*
X166751190Y-118863619D01*
X166798809Y-118816000D01*
X166894047Y-118768380D01*
X167132142Y-118768380D01*
X167275000Y-118816000D01*
X167560714Y-118768380D02*
X168132142Y-118768380D01*
X167846428Y-119768380D02*
X167846428Y-118768380D01*
X169227380Y-119101714D02*
X169227380Y-120101714D01*
X169227380Y-119149333D02*
X169322619Y-119101714D01*
X169513095Y-119101714D01*
X169608333Y-119149333D01*
X169655952Y-119196952D01*
X169703571Y-119292190D01*
X169703571Y-119577904D01*
X169655952Y-119673142D01*
X169608333Y-119720761D01*
X169513095Y-119768380D01*
X169322619Y-119768380D01*
X169227380Y-119720761D01*
X170132142Y-119768380D02*
X170132142Y-119101714D01*
X170132142Y-118768380D02*
X170084523Y-118816000D01*
X170132142Y-118863619D01*
X170179761Y-118816000D01*
X170132142Y-118768380D01*
X170132142Y-118863619D01*
X170608333Y-119101714D02*
X170608333Y-119768380D01*
X170608333Y-119196952D02*
X170655952Y-119149333D01*
X170751190Y-119101714D01*
X170894047Y-119101714D01*
X170989285Y-119149333D01*
X171036904Y-119244571D01*
X171036904Y-119768380D01*
X172132142Y-119101714D02*
X172513095Y-119101714D01*
X172275000Y-118768380D02*
X172275000Y-119625523D01*
X172322619Y-119720761D01*
X172417857Y-119768380D01*
X172513095Y-119768380D01*
X172989285Y-119768380D02*
X172894047Y-119720761D01*
X172846428Y-119673142D01*
X172798809Y-119577904D01*
X172798809Y-119292190D01*
X172846428Y-119196952D01*
X172894047Y-119149333D01*
X172989285Y-119101714D01*
X173132142Y-119101714D01*
X173227380Y-119149333D01*
X173275000Y-119196952D01*
X173322619Y-119292190D01*
X173322619Y-119577904D01*
X173275000Y-119673142D01*
X173227380Y-119720761D01*
X173132142Y-119768380D01*
X172989285Y-119768380D01*
X175036904Y-118816000D02*
X174941666Y-118768380D01*
X174798809Y-118768380D01*
X174655952Y-118816000D01*
X174560714Y-118911238D01*
X174513095Y-119006476D01*
X174465476Y-119196952D01*
X174465476Y-119339809D01*
X174513095Y-119530285D01*
X174560714Y-119625523D01*
X174655952Y-119720761D01*
X174798809Y-119768380D01*
X174894047Y-119768380D01*
X175036904Y-119720761D01*
X175084523Y-119673142D01*
X175084523Y-119339809D01*
X174894047Y-119339809D01*
X175513095Y-119768380D02*
X175513095Y-118768380D01*
X176084523Y-119768380D01*
X176084523Y-118768380D01*
X176560714Y-119768380D02*
X176560714Y-118768380D01*
X176798809Y-118768380D01*
X176941666Y-118816000D01*
X177036904Y-118911238D01*
X177084523Y-119006476D01*
X177132142Y-119196952D01*
X177132142Y-119339809D01*
X177084523Y-119530285D01*
X177036904Y-119625523D01*
X176941666Y-119720761D01*
X176798809Y-119768380D01*
X176560714Y-119768380D01*
X177608333Y-119720761D02*
X177608333Y-119768380D01*
X177560714Y-119863619D01*
X177513095Y-119911238D01*
X179227380Y-119768380D02*
X179227380Y-119244571D01*
X179179761Y-119149333D01*
X179084523Y-119101714D01*
X178894047Y-119101714D01*
X178798809Y-119149333D01*
X179227380Y-119720761D02*
X179132142Y-119768380D01*
X178894047Y-119768380D01*
X178798809Y-119720761D01*
X178751190Y-119625523D01*
X178751190Y-119530285D01*
X178798809Y-119435047D01*
X178894047Y-119387428D01*
X179132142Y-119387428D01*
X179227380Y-119339809D01*
X179703571Y-119101714D02*
X179703571Y-119768380D01*
X179703571Y-119196952D02*
X179751190Y-119149333D01*
X179846428Y-119101714D01*
X179989285Y-119101714D01*
X180084523Y-119149333D01*
X180132142Y-119244571D01*
X180132142Y-119768380D01*
X181036904Y-119768380D02*
X181036904Y-118768380D01*
X181036904Y-119720761D02*
X180941666Y-119768380D01*
X180751190Y-119768380D01*
X180655952Y-119720761D01*
X180608333Y-119673142D01*
X180560714Y-119577904D01*
X180560714Y-119292190D01*
X180608333Y-119196952D01*
X180655952Y-119149333D01*
X180751190Y-119101714D01*
X180941666Y-119101714D01*
X181036904Y-119149333D01*
X157203571Y-120751714D02*
X157203571Y-121418380D01*
X156775000Y-120751714D02*
X156775000Y-121275523D01*
X156822619Y-121370761D01*
X156917857Y-121418380D01*
X157060714Y-121418380D01*
X157155952Y-121370761D01*
X157203571Y-121323142D01*
X157632142Y-121370761D02*
X157727380Y-121418380D01*
X157917857Y-121418380D01*
X158013095Y-121370761D01*
X158060714Y-121275523D01*
X158060714Y-121227904D01*
X158013095Y-121132666D01*
X157917857Y-121085047D01*
X157775000Y-121085047D01*
X157679761Y-121037428D01*
X157632142Y-120942190D01*
X157632142Y-120894571D01*
X157679761Y-120799333D01*
X157775000Y-120751714D01*
X157917857Y-120751714D01*
X158013095Y-120799333D01*
X158870238Y-121370761D02*
X158775000Y-121418380D01*
X158584523Y-121418380D01*
X158489285Y-121370761D01*
X158441666Y-121275523D01*
X158441666Y-120894571D01*
X158489285Y-120799333D01*
X158584523Y-120751714D01*
X158775000Y-120751714D01*
X158870238Y-120799333D01*
X158917857Y-120894571D01*
X158917857Y-120989809D01*
X158441666Y-121085047D01*
X159298809Y-121370761D02*
X159394047Y-121418380D01*
X159584523Y-121418380D01*
X159679761Y-121370761D01*
X159727380Y-121275523D01*
X159727380Y-121227904D01*
X159679761Y-121132666D01*
X159584523Y-121085047D01*
X159441666Y-121085047D01*
X159346428Y-121037428D01*
X159298809Y-120942190D01*
X159298809Y-120894571D01*
X159346428Y-120799333D01*
X159441666Y-120751714D01*
X159584523Y-120751714D01*
X159679761Y-120799333D01*
X160775000Y-120751714D02*
X161155952Y-120751714D01*
X160917857Y-120418380D02*
X160917857Y-121275523D01*
X160965476Y-121370761D01*
X161060714Y-121418380D01*
X161155952Y-121418380D01*
X161489285Y-121418380D02*
X161489285Y-120418380D01*
X161917857Y-121418380D02*
X161917857Y-120894571D01*
X161870238Y-120799333D01*
X161775000Y-120751714D01*
X161632142Y-120751714D01*
X161536904Y-120799333D01*
X161489285Y-120846952D01*
X162775000Y-121370761D02*
X162679761Y-121418380D01*
X162489285Y-121418380D01*
X162394047Y-121370761D01*
X162346428Y-121275523D01*
X162346428Y-120894571D01*
X162394047Y-120799333D01*
X162489285Y-120751714D01*
X162679761Y-120751714D01*
X162775000Y-120799333D01*
X162822619Y-120894571D01*
X162822619Y-120989809D01*
X162346428Y-121085047D01*
X164013095Y-120418380D02*
X164013095Y-121227904D01*
X164060714Y-121323142D01*
X164108333Y-121370761D01*
X164203571Y-121418380D01*
X164394047Y-121418380D01*
X164489285Y-121370761D01*
X164536904Y-121323142D01*
X164584523Y-121227904D01*
X164584523Y-120418380D01*
X165013095Y-121370761D02*
X165155952Y-121418380D01*
X165394047Y-121418380D01*
X165489285Y-121370761D01*
X165536904Y-121323142D01*
X165584523Y-121227904D01*
X165584523Y-121132666D01*
X165536904Y-121037428D01*
X165489285Y-120989809D01*
X165394047Y-120942190D01*
X165203571Y-120894571D01*
X165108333Y-120846952D01*
X165060714Y-120799333D01*
X165013095Y-120704095D01*
X165013095Y-120608857D01*
X165060714Y-120513619D01*
X165108333Y-120466000D01*
X165203571Y-120418380D01*
X165441666Y-120418380D01*
X165584523Y-120466000D01*
X166346428Y-120894571D02*
X166489285Y-120942190D01*
X166536904Y-120989809D01*
X166584523Y-121085047D01*
X166584523Y-121227904D01*
X166536904Y-121323142D01*
X166489285Y-121370761D01*
X166394047Y-121418380D01*
X166013095Y-121418380D01*
X166013095Y-120418380D01*
X166346428Y-120418380D01*
X166441666Y-120466000D01*
X166489285Y-120513619D01*
X166536904Y-120608857D01*
X166536904Y-120704095D01*
X166489285Y-120799333D01*
X166441666Y-120846952D01*
X166346428Y-120894571D01*
X166013095Y-120894571D01*
X168203571Y-121418380D02*
X168203571Y-120894571D01*
X168155952Y-120799333D01*
X168060714Y-120751714D01*
X167870238Y-120751714D01*
X167775000Y-120799333D01*
X168203571Y-121370761D02*
X168108333Y-121418380D01*
X167870238Y-121418380D01*
X167775000Y-121370761D01*
X167727380Y-121275523D01*
X167727380Y-121180285D01*
X167775000Y-121085047D01*
X167870238Y-121037428D01*
X168108333Y-121037428D01*
X168203571Y-120989809D01*
X169108333Y-121418380D02*
X169108333Y-120418380D01*
X169108333Y-121370761D02*
X169013095Y-121418380D01*
X168822619Y-121418380D01*
X168727380Y-121370761D01*
X168679761Y-121323142D01*
X168632142Y-121227904D01*
X168632142Y-120942190D01*
X168679761Y-120846952D01*
X168727380Y-120799333D01*
X168822619Y-120751714D01*
X169013095Y-120751714D01*
X169108333Y-120799333D01*
X170013095Y-121418380D02*
X170013095Y-120894571D01*
X169965476Y-120799333D01*
X169870238Y-120751714D01*
X169679761Y-120751714D01*
X169584523Y-120799333D01*
X170013095Y-121370761D02*
X169917857Y-121418380D01*
X169679761Y-121418380D01*
X169584523Y-121370761D01*
X169536904Y-121275523D01*
X169536904Y-121180285D01*
X169584523Y-121085047D01*
X169679761Y-121037428D01*
X169917857Y-121037428D01*
X170013095Y-120989809D01*
X170489285Y-120751714D02*
X170489285Y-121751714D01*
X170489285Y-120799333D02*
X170584523Y-120751714D01*
X170775000Y-120751714D01*
X170870238Y-120799333D01*
X170917857Y-120846952D01*
X170965476Y-120942190D01*
X170965476Y-121227904D01*
X170917857Y-121323142D01*
X170870238Y-121370761D01*
X170775000Y-121418380D01*
X170584523Y-121418380D01*
X170489285Y-121370761D01*
X171251190Y-120751714D02*
X171632142Y-120751714D01*
X171394047Y-120418380D02*
X171394047Y-121275523D01*
X171441666Y-121370761D01*
X171536904Y-121418380D01*
X171632142Y-121418380D01*
X172346428Y-121370761D02*
X172251190Y-121418380D01*
X172060714Y-121418380D01*
X171965476Y-121370761D01*
X171917857Y-121275523D01*
X171917857Y-120894571D01*
X171965476Y-120799333D01*
X172060714Y-120751714D01*
X172251190Y-120751714D01*
X172346428Y-120799333D01*
X172394047Y-120894571D01*
X172394047Y-120989809D01*
X171917857Y-121085047D01*
X172822619Y-121418380D02*
X172822619Y-120751714D01*
X172822619Y-120942190D02*
X172870238Y-120846952D01*
X172917857Y-120799333D01*
X173013095Y-120751714D01*
X173108333Y-120751714D01*
X174632142Y-121418380D02*
X174632142Y-120418380D01*
X174632142Y-121370761D02*
X174536904Y-121418380D01*
X174346428Y-121418380D01*
X174251190Y-121370761D01*
X174203571Y-121323142D01*
X174155952Y-121227904D01*
X174155952Y-120942190D01*
X174203571Y-120846952D01*
X174251190Y-120799333D01*
X174346428Y-120751714D01*
X174536904Y-120751714D01*
X174632142Y-120799333D01*
X175108333Y-121418380D02*
X175108333Y-120751714D01*
X175108333Y-120418380D02*
X175060714Y-120466000D01*
X175108333Y-120513619D01*
X175155952Y-120466000D01*
X175108333Y-120418380D01*
X175108333Y-120513619D01*
X175584523Y-121418380D02*
X175584523Y-120751714D01*
X175584523Y-120942190D02*
X175632142Y-120846952D01*
X175679761Y-120799333D01*
X175775000Y-120751714D01*
X175870238Y-120751714D01*
X176584523Y-121370761D02*
X176489285Y-121418380D01*
X176298809Y-121418380D01*
X176203571Y-121370761D01*
X176155952Y-121275523D01*
X176155952Y-120894571D01*
X176203571Y-120799333D01*
X176298809Y-120751714D01*
X176489285Y-120751714D01*
X176584523Y-120799333D01*
X176632142Y-120894571D01*
X176632142Y-120989809D01*
X176155952Y-121085047D01*
X177489285Y-121370761D02*
X177394047Y-121418380D01*
X177203571Y-121418380D01*
X177108333Y-121370761D01*
X177060714Y-121323142D01*
X177013095Y-121227904D01*
X177013095Y-120942190D01*
X177060714Y-120846952D01*
X177108333Y-120799333D01*
X177203571Y-120751714D01*
X177394047Y-120751714D01*
X177489285Y-120799333D01*
X177775000Y-120751714D02*
X178155952Y-120751714D01*
X177917857Y-120418380D02*
X177917857Y-121275523D01*
X177965476Y-121370761D01*
X178060714Y-121418380D01*
X178155952Y-121418380D01*
X178632142Y-121418380D02*
X178536904Y-121370761D01*
X178489285Y-121275523D01*
X178489285Y-120418380D01*
X178917857Y-120751714D02*
X179155952Y-121418380D01*
X179394047Y-120751714D02*
X179155952Y-121418380D01*
X179060714Y-121656476D01*
X179013095Y-121704095D01*
X178917857Y-121751714D01*
X179775000Y-121323142D02*
X179822619Y-121370761D01*
X179775000Y-121418380D01*
X179727380Y-121370761D01*
X179775000Y-121323142D01*
X179775000Y-121418380D01*
X171331380Y-108370190D02*
X170331380Y-108370190D01*
X170712333Y-108370190D02*
X170664714Y-108274952D01*
X170664714Y-108084476D01*
X170712333Y-107989238D01*
X170759952Y-107941619D01*
X170855190Y-107894000D01*
X171140904Y-107894000D01*
X171236142Y-107941619D01*
X171283761Y-107989238D01*
X171331380Y-108084476D01*
X171331380Y-108274952D01*
X171283761Y-108370190D01*
X171331380Y-107465428D02*
X170664714Y-107465428D01*
X170855190Y-107465428D02*
X170759952Y-107417809D01*
X170712333Y-107370190D01*
X170664714Y-107274952D01*
X170664714Y-107179714D01*
X171283761Y-106465428D02*
X171331380Y-106560666D01*
X171331380Y-106751142D01*
X171283761Y-106846380D01*
X171188523Y-106894000D01*
X170807571Y-106894000D01*
X170712333Y-106846380D01*
X170664714Y-106751142D01*
X170664714Y-106560666D01*
X170712333Y-106465428D01*
X170807571Y-106417809D01*
X170902809Y-106417809D01*
X170998047Y-106894000D01*
X171331380Y-105560666D02*
X170807571Y-105560666D01*
X170712333Y-105608285D01*
X170664714Y-105703523D01*
X170664714Y-105894000D01*
X170712333Y-105989238D01*
X171283761Y-105560666D02*
X171331380Y-105655904D01*
X171331380Y-105894000D01*
X171283761Y-105989238D01*
X171188523Y-106036857D01*
X171093285Y-106036857D01*
X170998047Y-105989238D01*
X170950428Y-105894000D01*
X170950428Y-105655904D01*
X170902809Y-105560666D01*
X171331380Y-104655904D02*
X170331380Y-104655904D01*
X171283761Y-104655904D02*
X171331380Y-104751142D01*
X171331380Y-104941619D01*
X171283761Y-105036857D01*
X171236142Y-105084476D01*
X171140904Y-105132095D01*
X170855190Y-105132095D01*
X170759952Y-105084476D01*
X170712333Y-105036857D01*
X170664714Y-104941619D01*
X170664714Y-104751142D01*
X170712333Y-104655904D01*
X171331380Y-104179714D02*
X170331380Y-104179714D01*
X170712333Y-104179714D02*
X170664714Y-104084476D01*
X170664714Y-103894000D01*
X170712333Y-103798761D01*
X170759952Y-103751142D01*
X170855190Y-103703523D01*
X171140904Y-103703523D01*
X171236142Y-103751142D01*
X171283761Y-103798761D01*
X171331380Y-103894000D01*
X171331380Y-104084476D01*
X171283761Y-104179714D01*
X171331380Y-103132095D02*
X171283761Y-103227333D01*
X171236142Y-103274952D01*
X171140904Y-103322571D01*
X170855190Y-103322571D01*
X170759952Y-103274952D01*
X170712333Y-103227333D01*
X170664714Y-103132095D01*
X170664714Y-102989238D01*
X170712333Y-102894000D01*
X170759952Y-102846380D01*
X170855190Y-102798761D01*
X171140904Y-102798761D01*
X171236142Y-102846380D01*
X171283761Y-102894000D01*
X171331380Y-102989238D01*
X171331380Y-103132095D01*
X171331380Y-101941619D02*
X170807571Y-101941619D01*
X170712333Y-101989238D01*
X170664714Y-102084476D01*
X170664714Y-102274952D01*
X170712333Y-102370190D01*
X171283761Y-101941619D02*
X171331380Y-102036857D01*
X171331380Y-102274952D01*
X171283761Y-102370190D01*
X171188523Y-102417809D01*
X171093285Y-102417809D01*
X170998047Y-102370190D01*
X170950428Y-102274952D01*
X170950428Y-102036857D01*
X170902809Y-101941619D01*
X171331380Y-101465428D02*
X170664714Y-101465428D01*
X170855190Y-101465428D02*
X170759952Y-101417809D01*
X170712333Y-101370190D01*
X170664714Y-101274952D01*
X170664714Y-101179714D01*
X171331380Y-100417809D02*
X170331380Y-100417809D01*
X171283761Y-100417809D02*
X171331380Y-100513047D01*
X171331380Y-100703523D01*
X171283761Y-100798761D01*
X171236142Y-100846380D01*
X171140904Y-100894000D01*
X170855190Y-100894000D01*
X170759952Y-100846380D01*
X170712333Y-100798761D01*
X170664714Y-100703523D01*
X170664714Y-100513047D01*
X170712333Y-100417809D01*
X172981380Y-106560666D02*
X172457571Y-106560666D01*
X172362333Y-106608285D01*
X172314714Y-106703523D01*
X172314714Y-106894000D01*
X172362333Y-106989238D01*
X172933761Y-106560666D02*
X172981380Y-106655904D01*
X172981380Y-106894000D01*
X172933761Y-106989238D01*
X172838523Y-107036857D01*
X172743285Y-107036857D01*
X172648047Y-106989238D01*
X172600428Y-106894000D01*
X172600428Y-106655904D01*
X172552809Y-106560666D01*
X172981380Y-105655904D02*
X171981380Y-105655904D01*
X172933761Y-105655904D02*
X172981380Y-105751142D01*
X172981380Y-105941619D01*
X172933761Y-106036857D01*
X172886142Y-106084476D01*
X172790904Y-106132095D01*
X172505190Y-106132095D01*
X172409952Y-106084476D01*
X172362333Y-106036857D01*
X172314714Y-105941619D01*
X172314714Y-105751142D01*
X172362333Y-105655904D01*
X172981380Y-104751142D02*
X172457571Y-104751142D01*
X172362333Y-104798761D01*
X172314714Y-104894000D01*
X172314714Y-105084476D01*
X172362333Y-105179714D01*
X172933761Y-104751142D02*
X172981380Y-104846380D01*
X172981380Y-105084476D01*
X172933761Y-105179714D01*
X172838523Y-105227333D01*
X172743285Y-105227333D01*
X172648047Y-105179714D01*
X172600428Y-105084476D01*
X172600428Y-104846380D01*
X172552809Y-104751142D01*
X172314714Y-104274952D02*
X173314714Y-104274952D01*
X172362333Y-104274952D02*
X172314714Y-104179714D01*
X172314714Y-103989238D01*
X172362333Y-103894000D01*
X172409952Y-103846380D01*
X172505190Y-103798761D01*
X172790904Y-103798761D01*
X172886142Y-103846380D01*
X172933761Y-103894000D01*
X172981380Y-103989238D01*
X172981380Y-104179714D01*
X172933761Y-104274952D01*
X172314714Y-103513047D02*
X172314714Y-103132095D01*
X171981380Y-103370190D02*
X172838523Y-103370190D01*
X172933761Y-103322571D01*
X172981380Y-103227333D01*
X172981380Y-103132095D01*
X172933761Y-102417809D02*
X172981380Y-102513047D01*
X172981380Y-102703523D01*
X172933761Y-102798761D01*
X172838523Y-102846380D01*
X172457571Y-102846380D01*
X172362333Y-102798761D01*
X172314714Y-102703523D01*
X172314714Y-102513047D01*
X172362333Y-102417809D01*
X172457571Y-102370190D01*
X172552809Y-102370190D01*
X172648047Y-102846380D01*
X172981380Y-101941619D02*
X172314714Y-101941619D01*
X172505190Y-101941619D02*
X172409952Y-101894000D01*
X172362333Y-101846380D01*
X172314714Y-101751142D01*
X172314714Y-101655904D01*
X169180190Y-96575571D02*
X169513523Y-96575571D01*
X169656380Y-97099380D02*
X169180190Y-97099380D01*
X169180190Y-96099380D01*
X169656380Y-96099380D01*
X170037333Y-97051761D02*
X170180190Y-97099380D01*
X170418285Y-97099380D01*
X170513523Y-97051761D01*
X170561142Y-97004142D01*
X170608761Y-96908904D01*
X170608761Y-96813666D01*
X170561142Y-96718428D01*
X170513523Y-96670809D01*
X170418285Y-96623190D01*
X170227809Y-96575571D01*
X170132571Y-96527952D01*
X170084952Y-96480333D01*
X170037333Y-96385095D01*
X170037333Y-96289857D01*
X170084952Y-96194619D01*
X170132571Y-96147000D01*
X170227809Y-96099380D01*
X170465904Y-96099380D01*
X170608761Y-96147000D01*
X171037333Y-97099380D02*
X171037333Y-96099380D01*
X171418285Y-96099380D01*
X171513523Y-96147000D01*
X171561142Y-96194619D01*
X171608761Y-96289857D01*
X171608761Y-96432714D01*
X171561142Y-96527952D01*
X171513523Y-96575571D01*
X171418285Y-96623190D01*
X171037333Y-96623190D01*
X172989714Y-96099380D02*
X173084952Y-96099380D01*
X173180190Y-96147000D01*
X173227809Y-96194619D01*
X173275428Y-96289857D01*
X173323047Y-96480333D01*
X173323047Y-96718428D01*
X173275428Y-96908904D01*
X173227809Y-97004142D01*
X173180190Y-97051761D01*
X173084952Y-97099380D01*
X172989714Y-97099380D01*
X172894476Y-97051761D01*
X172846857Y-97004142D01*
X172799238Y-96908904D01*
X172751619Y-96718428D01*
X172751619Y-96480333D01*
X172799238Y-96289857D01*
X172846857Y-96194619D01*
X172894476Y-96147000D01*
X172989714Y-96099380D01*
X173656380Y-96099380D02*
X174323047Y-96099380D01*
X173894476Y-97099380D01*
D11*
X146970000Y-118125000D02*
X146970000Y-114285000D01*
X145130000Y-118125000D02*
X145130000Y-114285000D01*
X143795000Y-118125000D02*
X143795000Y-114285000D01*
X141955000Y-118125000D02*
X141955000Y-114285000D01*
D10*
X163255571Y-112490100D02*
X163169857Y-112447242D01*
X163041285Y-112447242D01*
X162912714Y-112490100D01*
X162827000Y-112575814D01*
X162784143Y-112661528D01*
X162741285Y-112832957D01*
X162741285Y-112961528D01*
X162784143Y-113132957D01*
X162827000Y-113218671D01*
X162912714Y-113304385D01*
X163041285Y-113347242D01*
X163127000Y-113347242D01*
X163255571Y-113304385D01*
X163298428Y-113261528D01*
X163298428Y-112961528D01*
X163127000Y-112961528D01*
X163684143Y-113347242D02*
X163684143Y-112447242D01*
X164027000Y-112447242D01*
X164112714Y-112490100D01*
X164155571Y-112532957D01*
X164198428Y-112618671D01*
X164198428Y-112747242D01*
X164155571Y-112832957D01*
X164112714Y-112875814D01*
X164027000Y-112918671D01*
X163684143Y-112918671D01*
X164584143Y-113347242D02*
X164584143Y-112447242D01*
X165184143Y-112447242D02*
X165355571Y-112447242D01*
X165441285Y-112490100D01*
X165527000Y-112575814D01*
X165569857Y-112747242D01*
X165569857Y-113047242D01*
X165527000Y-113218671D01*
X165441285Y-113304385D01*
X165355571Y-113347242D01*
X165184143Y-113347242D01*
X165098428Y-113304385D01*
X165012714Y-113218671D01*
X164969857Y-113047242D01*
X164969857Y-112747242D01*
X165012714Y-112575814D01*
X165098428Y-112490100D01*
X165184143Y-112447242D01*
X166427000Y-113347242D02*
X165912714Y-113347242D01*
X166169857Y-113347242D02*
X166169857Y-112447242D01*
X166084143Y-112575814D01*
X165998428Y-112661528D01*
X165912714Y-112704385D01*
X163255571Y-109950100D02*
X163169857Y-109907242D01*
X163041285Y-109907242D01*
X162912714Y-109950100D01*
X162827000Y-110035814D01*
X162784143Y-110121528D01*
X162741285Y-110292957D01*
X162741285Y-110421528D01*
X162784143Y-110592957D01*
X162827000Y-110678671D01*
X162912714Y-110764385D01*
X163041285Y-110807242D01*
X163127000Y-110807242D01*
X163255571Y-110764385D01*
X163298428Y-110721528D01*
X163298428Y-110421528D01*
X163127000Y-110421528D01*
X163684143Y-110807242D02*
X163684143Y-109907242D01*
X164027000Y-109907242D01*
X164112714Y-109950100D01*
X164155571Y-109992957D01*
X164198428Y-110078671D01*
X164198428Y-110207242D01*
X164155571Y-110292957D01*
X164112714Y-110335814D01*
X164027000Y-110378671D01*
X163684143Y-110378671D01*
X164584143Y-110807242D02*
X164584143Y-109907242D01*
X165184143Y-109907242D02*
X165355571Y-109907242D01*
X165441285Y-109950100D01*
X165527000Y-110035814D01*
X165569857Y-110207242D01*
X165569857Y-110507242D01*
X165527000Y-110678671D01*
X165441285Y-110764385D01*
X165355571Y-110807242D01*
X165184143Y-110807242D01*
X165098428Y-110764385D01*
X165012714Y-110678671D01*
X164969857Y-110507242D01*
X164969857Y-110207242D01*
X165012714Y-110035814D01*
X165098428Y-109950100D01*
X165184143Y-109907242D01*
X165869857Y-109907242D02*
X166427000Y-109907242D01*
X166127000Y-110250100D01*
X166255571Y-110250100D01*
X166341285Y-110292957D01*
X166384143Y-110335814D01*
X166427000Y-110421528D01*
X166427000Y-110635814D01*
X166384143Y-110721528D01*
X166341285Y-110764385D01*
X166255571Y-110807242D01*
X165998428Y-110807242D01*
X165912714Y-110764385D01*
X165869857Y-110721528D01*
X163255571Y-107410100D02*
X163169857Y-107367242D01*
X163041285Y-107367242D01*
X162912714Y-107410100D01*
X162827000Y-107495814D01*
X162784143Y-107581528D01*
X162741285Y-107752957D01*
X162741285Y-107881528D01*
X162784143Y-108052957D01*
X162827000Y-108138671D01*
X162912714Y-108224385D01*
X163041285Y-108267242D01*
X163127000Y-108267242D01*
X163255571Y-108224385D01*
X163298428Y-108181528D01*
X163298428Y-107881528D01*
X163127000Y-107881528D01*
X163684143Y-108267242D02*
X163684143Y-107367242D01*
X164027000Y-107367242D01*
X164112714Y-107410100D01*
X164155571Y-107452957D01*
X164198428Y-107538671D01*
X164198428Y-107667242D01*
X164155571Y-107752957D01*
X164112714Y-107795814D01*
X164027000Y-107838671D01*
X163684143Y-107838671D01*
X164584143Y-108267242D02*
X164584143Y-107367242D01*
X165184143Y-107367242D02*
X165355571Y-107367242D01*
X165441285Y-107410100D01*
X165527000Y-107495814D01*
X165569857Y-107667242D01*
X165569857Y-107967242D01*
X165527000Y-108138671D01*
X165441285Y-108224385D01*
X165355571Y-108267242D01*
X165184143Y-108267242D01*
X165098428Y-108224385D01*
X165012714Y-108138671D01*
X164969857Y-107967242D01*
X164969857Y-107667242D01*
X165012714Y-107495814D01*
X165098428Y-107410100D01*
X165184143Y-107367242D01*
X166384143Y-107367242D02*
X165955571Y-107367242D01*
X165912714Y-107795814D01*
X165955571Y-107752957D01*
X166041285Y-107710100D01*
X166255571Y-107710100D01*
X166341285Y-107752957D01*
X166384143Y-107795814D01*
X166427000Y-107881528D01*
X166427000Y-108095814D01*
X166384143Y-108181528D01*
X166341285Y-108224385D01*
X166255571Y-108267242D01*
X166041285Y-108267242D01*
X165955571Y-108224385D01*
X165912714Y-108181528D01*
X163255571Y-104870100D02*
X163169857Y-104827242D01*
X163041285Y-104827242D01*
X162912714Y-104870100D01*
X162827000Y-104955814D01*
X162784143Y-105041528D01*
X162741285Y-105212957D01*
X162741285Y-105341528D01*
X162784143Y-105512957D01*
X162827000Y-105598671D01*
X162912714Y-105684385D01*
X163041285Y-105727242D01*
X163127000Y-105727242D01*
X163255571Y-105684385D01*
X163298428Y-105641528D01*
X163298428Y-105341528D01*
X163127000Y-105341528D01*
X163684143Y-105727242D02*
X163684143Y-104827242D01*
X164027000Y-104827242D01*
X164112714Y-104870100D01*
X164155571Y-104912957D01*
X164198428Y-104998671D01*
X164198428Y-105127242D01*
X164155571Y-105212957D01*
X164112714Y-105255814D01*
X164027000Y-105298671D01*
X163684143Y-105298671D01*
X164584143Y-105727242D02*
X164584143Y-104827242D01*
X165184143Y-104827242D02*
X165355571Y-104827242D01*
X165441285Y-104870100D01*
X165527000Y-104955814D01*
X165569857Y-105127242D01*
X165569857Y-105427242D01*
X165527000Y-105598671D01*
X165441285Y-105684385D01*
X165355571Y-105727242D01*
X165184143Y-105727242D01*
X165098428Y-105684385D01*
X165012714Y-105598671D01*
X164969857Y-105427242D01*
X164969857Y-105127242D01*
X165012714Y-104955814D01*
X165098428Y-104870100D01*
X165184143Y-104827242D01*
X166341285Y-105127242D02*
X166341285Y-105727242D01*
X166127000Y-104784385D02*
X165912714Y-105427242D01*
X166469857Y-105427242D01*
X163255571Y-102330100D02*
X163169857Y-102287242D01*
X163041285Y-102287242D01*
X162912714Y-102330100D01*
X162827000Y-102415814D01*
X162784143Y-102501528D01*
X162741285Y-102672957D01*
X162741285Y-102801528D01*
X162784143Y-102972957D01*
X162827000Y-103058671D01*
X162912714Y-103144385D01*
X163041285Y-103187242D01*
X163127000Y-103187242D01*
X163255571Y-103144385D01*
X163298428Y-103101528D01*
X163298428Y-102801528D01*
X163127000Y-102801528D01*
X163684143Y-103187242D02*
X163684143Y-102287242D01*
X164027000Y-102287242D01*
X164112714Y-102330100D01*
X164155571Y-102372957D01*
X164198428Y-102458671D01*
X164198428Y-102587242D01*
X164155571Y-102672957D01*
X164112714Y-102715814D01*
X164027000Y-102758671D01*
X163684143Y-102758671D01*
X164584143Y-103187242D02*
X164584143Y-102287242D01*
X165184143Y-102287242D02*
X165355571Y-102287242D01*
X165441285Y-102330100D01*
X165527000Y-102415814D01*
X165569857Y-102587242D01*
X165569857Y-102887242D01*
X165527000Y-103058671D01*
X165441285Y-103144385D01*
X165355571Y-103187242D01*
X165184143Y-103187242D01*
X165098428Y-103144385D01*
X165012714Y-103058671D01*
X164969857Y-102887242D01*
X164969857Y-102587242D01*
X165012714Y-102415814D01*
X165098428Y-102330100D01*
X165184143Y-102287242D01*
X166127000Y-102287242D02*
X166212714Y-102287242D01*
X166298428Y-102330100D01*
X166341285Y-102372957D01*
X166384143Y-102458671D01*
X166427000Y-102630100D01*
X166427000Y-102844385D01*
X166384143Y-103015814D01*
X166341285Y-103101528D01*
X166298428Y-103144385D01*
X166212714Y-103187242D01*
X166127000Y-103187242D01*
X166041285Y-103144385D01*
X165998428Y-103101528D01*
X165955571Y-103015814D01*
X165912714Y-102844385D01*
X165912714Y-102630100D01*
X165955571Y-102458671D01*
X165998428Y-102372957D01*
X166041285Y-102330100D01*
X166127000Y-102287242D01*
X163255571Y-99790100D02*
X163169857Y-99747242D01*
X163041285Y-99747242D01*
X162912714Y-99790100D01*
X162827000Y-99875814D01*
X162784143Y-99961528D01*
X162741285Y-100132957D01*
X162741285Y-100261528D01*
X162784143Y-100432957D01*
X162827000Y-100518671D01*
X162912714Y-100604385D01*
X163041285Y-100647242D01*
X163127000Y-100647242D01*
X163255571Y-100604385D01*
X163298428Y-100561528D01*
X163298428Y-100261528D01*
X163127000Y-100261528D01*
X163684143Y-100647242D02*
X163684143Y-99747242D01*
X164027000Y-99747242D01*
X164112714Y-99790100D01*
X164155571Y-99832957D01*
X164198428Y-99918671D01*
X164198428Y-100047242D01*
X164155571Y-100132957D01*
X164112714Y-100175814D01*
X164027000Y-100218671D01*
X163684143Y-100218671D01*
X164584143Y-100647242D02*
X164584143Y-99747242D01*
X165184143Y-99747242D02*
X165355571Y-99747242D01*
X165441285Y-99790100D01*
X165527000Y-99875814D01*
X165569857Y-100047242D01*
X165569857Y-100347242D01*
X165527000Y-100518671D01*
X165441285Y-100604385D01*
X165355571Y-100647242D01*
X165184143Y-100647242D01*
X165098428Y-100604385D01*
X165012714Y-100518671D01*
X164969857Y-100347242D01*
X164969857Y-100047242D01*
X165012714Y-99875814D01*
X165098428Y-99790100D01*
X165184143Y-99747242D01*
X165912714Y-99832957D02*
X165955571Y-99790100D01*
X166041285Y-99747242D01*
X166255571Y-99747242D01*
X166341285Y-99790100D01*
X166384143Y-99832957D01*
X166427000Y-99918671D01*
X166427000Y-100004385D01*
X166384143Y-100132957D01*
X165869857Y-100647242D01*
X166427000Y-100647242D01*
X162398429Y-97250100D02*
X162312714Y-97207242D01*
X162184143Y-97207242D01*
X162055572Y-97250100D01*
X161969857Y-97335814D01*
X161927000Y-97421528D01*
X161884143Y-97592957D01*
X161884143Y-97721528D01*
X161927000Y-97892957D01*
X161969857Y-97978671D01*
X162055572Y-98064385D01*
X162184143Y-98107242D01*
X162269857Y-98107242D01*
X162398429Y-98064385D01*
X162441286Y-98021528D01*
X162441286Y-97721528D01*
X162269857Y-97721528D01*
X162827000Y-98107242D02*
X162827000Y-97207242D01*
X163169857Y-97207242D01*
X163255572Y-97250100D01*
X163298429Y-97292957D01*
X163341286Y-97378671D01*
X163341286Y-97507242D01*
X163298429Y-97592957D01*
X163255572Y-97635814D01*
X163169857Y-97678671D01*
X162827000Y-97678671D01*
X163727000Y-98107242D02*
X163727000Y-97207242D01*
X164327000Y-97207242D02*
X164498429Y-97207242D01*
X164584143Y-97250100D01*
X164669857Y-97335814D01*
X164712714Y-97507242D01*
X164712714Y-97807242D01*
X164669857Y-97978671D01*
X164584143Y-98064385D01*
X164498429Y-98107242D01*
X164327000Y-98107242D01*
X164241286Y-98064385D01*
X164155572Y-97978671D01*
X164112714Y-97807242D01*
X164112714Y-97507242D01*
X164155572Y-97335814D01*
X164241286Y-97250100D01*
X164327000Y-97207242D01*
X165569857Y-98107242D02*
X165055572Y-98107242D01*
X165312714Y-98107242D02*
X165312714Y-97207242D01*
X165227000Y-97335814D01*
X165141286Y-97421528D01*
X165055572Y-97464385D01*
X166384143Y-97207242D02*
X165955572Y-97207242D01*
X165912714Y-97635814D01*
X165955572Y-97592957D01*
X166041286Y-97550100D01*
X166255572Y-97550100D01*
X166341286Y-97592957D01*
X166384143Y-97635814D01*
X166427000Y-97721528D01*
X166427000Y-97935814D01*
X166384143Y-98021528D01*
X166341286Y-98064385D01*
X166255572Y-98107242D01*
X166041286Y-98107242D01*
X165955572Y-98064385D01*
X165912714Y-98021528D01*
X164541285Y-94710100D02*
X164455571Y-94667242D01*
X164327000Y-94667242D01*
X164198428Y-94710100D01*
X164112714Y-94795814D01*
X164069857Y-94881528D01*
X164027000Y-95052957D01*
X164027000Y-95181528D01*
X164069857Y-95352957D01*
X164112714Y-95438671D01*
X164198428Y-95524385D01*
X164327000Y-95567242D01*
X164412714Y-95567242D01*
X164541285Y-95524385D01*
X164584142Y-95481528D01*
X164584142Y-95181528D01*
X164412714Y-95181528D01*
X164969857Y-95567242D02*
X164969857Y-94667242D01*
X165484142Y-95567242D01*
X165484142Y-94667242D01*
X165912714Y-95567242D02*
X165912714Y-94667242D01*
X166127000Y-94667242D01*
X166255571Y-94710100D01*
X166341285Y-94795814D01*
X166384142Y-94881528D01*
X166427000Y-95052957D01*
X166427000Y-95181528D01*
X166384142Y-95352957D01*
X166341285Y-95438671D01*
X166255571Y-95524385D01*
X166127000Y-95567242D01*
X165912714Y-95567242D01*
X177637342Y-95567242D02*
X177337342Y-95138671D01*
X177123057Y-95567242D02*
X177123057Y-94667242D01*
X177465914Y-94667242D01*
X177551628Y-94710100D01*
X177594485Y-94752957D01*
X177637342Y-94838671D01*
X177637342Y-94967242D01*
X177594485Y-95052957D01*
X177551628Y-95095814D01*
X177465914Y-95138671D01*
X177123057Y-95138671D01*
X177980200Y-95524385D02*
X178108771Y-95567242D01*
X178323057Y-95567242D01*
X178408771Y-95524385D01*
X178451628Y-95481528D01*
X178494485Y-95395814D01*
X178494485Y-95310100D01*
X178451628Y-95224385D01*
X178408771Y-95181528D01*
X178323057Y-95138671D01*
X178151628Y-95095814D01*
X178065914Y-95052957D01*
X178023057Y-95010100D01*
X177980200Y-94924385D01*
X177980200Y-94838671D01*
X178023057Y-94752957D01*
X178065914Y-94710100D01*
X178151628Y-94667242D01*
X178365914Y-94667242D01*
X178494485Y-94710100D01*
X178751628Y-94667242D02*
X179265914Y-94667242D01*
X179008771Y-95567242D02*
X179008771Y-94667242D01*
X177080200Y-97850100D02*
X177508771Y-97850100D01*
X176994486Y-98107242D02*
X177294486Y-97207242D01*
X177594486Y-98107242D01*
X177894486Y-98107242D02*
X177894486Y-97207242D01*
X178108771Y-97207242D01*
X178237343Y-97250100D01*
X178323057Y-97335814D01*
X178365914Y-97421528D01*
X178408771Y-97592957D01*
X178408771Y-97721528D01*
X178365914Y-97892957D01*
X178323057Y-97978671D01*
X178237343Y-98064385D01*
X178108771Y-98107242D01*
X177894486Y-98107242D01*
X179308771Y-98021528D02*
X179265914Y-98064385D01*
X179137343Y-98107242D01*
X179051628Y-98107242D01*
X178923057Y-98064385D01*
X178837343Y-97978671D01*
X178794486Y-97892957D01*
X178751628Y-97721528D01*
X178751628Y-97592957D01*
X178794486Y-97421528D01*
X178837343Y-97335814D01*
X178923057Y-97250100D01*
X179051628Y-97207242D01*
X179137343Y-97207242D01*
X179265914Y-97250100D01*
X179308771Y-97292957D01*
X177123057Y-100175814D02*
X177423057Y-100175814D01*
X177551628Y-100647242D02*
X177123057Y-100647242D01*
X177123057Y-99747242D01*
X177551628Y-99747242D01*
X177937343Y-100647242D02*
X177937343Y-99747242D01*
X178451628Y-100647242D01*
X178451628Y-99747242D01*
X177594486Y-102330100D02*
X177508771Y-102287242D01*
X177380200Y-102287242D01*
X177251629Y-102330100D01*
X177165914Y-102415814D01*
X177123057Y-102501528D01*
X177080200Y-102672957D01*
X177080200Y-102801528D01*
X177123057Y-102972957D01*
X177165914Y-103058671D01*
X177251629Y-103144385D01*
X177380200Y-103187242D01*
X177465914Y-103187242D01*
X177594486Y-103144385D01*
X177637343Y-103101528D01*
X177637343Y-102801528D01*
X177465914Y-102801528D01*
X178023057Y-103187242D02*
X178023057Y-102287242D01*
X178365914Y-102287242D01*
X178451629Y-102330100D01*
X178494486Y-102372957D01*
X178537343Y-102458671D01*
X178537343Y-102587242D01*
X178494486Y-102672957D01*
X178451629Y-102715814D01*
X178365914Y-102758671D01*
X178023057Y-102758671D01*
X178923057Y-103187242D02*
X178923057Y-102287242D01*
X179523057Y-102287242D02*
X179694486Y-102287242D01*
X179780200Y-102330100D01*
X179865914Y-102415814D01*
X179908771Y-102587242D01*
X179908771Y-102887242D01*
X179865914Y-103058671D01*
X179780200Y-103144385D01*
X179694486Y-103187242D01*
X179523057Y-103187242D01*
X179437343Y-103144385D01*
X179351629Y-103058671D01*
X179308771Y-102887242D01*
X179308771Y-102587242D01*
X179351629Y-102415814D01*
X179437343Y-102330100D01*
X179523057Y-102287242D01*
X180765914Y-103187242D02*
X180251629Y-103187242D01*
X180508771Y-103187242D02*
X180508771Y-102287242D01*
X180423057Y-102415814D01*
X180337343Y-102501528D01*
X180251629Y-102544385D01*
X181537343Y-102287242D02*
X181365914Y-102287242D01*
X181280200Y-102330100D01*
X181237343Y-102372957D01*
X181151629Y-102501528D01*
X181108771Y-102672957D01*
X181108771Y-103015814D01*
X181151629Y-103101528D01*
X181194486Y-103144385D01*
X181280200Y-103187242D01*
X181451629Y-103187242D01*
X181537343Y-103144385D01*
X181580200Y-103101528D01*
X181623057Y-103015814D01*
X181623057Y-102801528D01*
X181580200Y-102715814D01*
X181537343Y-102672957D01*
X181451629Y-102630100D01*
X181280200Y-102630100D01*
X181194486Y-102672957D01*
X181151629Y-102715814D01*
X181108771Y-102801528D01*
X177594486Y-104870100D02*
X177508771Y-104827242D01*
X177380200Y-104827242D01*
X177251629Y-104870100D01*
X177165914Y-104955814D01*
X177123057Y-105041528D01*
X177080200Y-105212957D01*
X177080200Y-105341528D01*
X177123057Y-105512957D01*
X177165914Y-105598671D01*
X177251629Y-105684385D01*
X177380200Y-105727242D01*
X177465914Y-105727242D01*
X177594486Y-105684385D01*
X177637343Y-105641528D01*
X177637343Y-105341528D01*
X177465914Y-105341528D01*
X178023057Y-105727242D02*
X178023057Y-104827242D01*
X178365914Y-104827242D01*
X178451629Y-104870100D01*
X178494486Y-104912957D01*
X178537343Y-104998671D01*
X178537343Y-105127242D01*
X178494486Y-105212957D01*
X178451629Y-105255814D01*
X178365914Y-105298671D01*
X178023057Y-105298671D01*
X178923057Y-105727242D02*
X178923057Y-104827242D01*
X179523057Y-104827242D02*
X179694486Y-104827242D01*
X179780200Y-104870100D01*
X179865914Y-104955814D01*
X179908771Y-105127242D01*
X179908771Y-105427242D01*
X179865914Y-105598671D01*
X179780200Y-105684385D01*
X179694486Y-105727242D01*
X179523057Y-105727242D01*
X179437343Y-105684385D01*
X179351629Y-105598671D01*
X179308771Y-105427242D01*
X179308771Y-105127242D01*
X179351629Y-104955814D01*
X179437343Y-104870100D01*
X179523057Y-104827242D01*
X180765914Y-105727242D02*
X180251629Y-105727242D01*
X180508771Y-105727242D02*
X180508771Y-104827242D01*
X180423057Y-104955814D01*
X180337343Y-105041528D01*
X180251629Y-105084385D01*
X181537343Y-105127242D02*
X181537343Y-105727242D01*
X181323057Y-104784385D02*
X181108771Y-105427242D01*
X181665914Y-105427242D01*
X177594486Y-107410100D02*
X177508771Y-107367242D01*
X177380200Y-107367242D01*
X177251629Y-107410100D01*
X177165914Y-107495814D01*
X177123057Y-107581528D01*
X177080200Y-107752957D01*
X177080200Y-107881528D01*
X177123057Y-108052957D01*
X177165914Y-108138671D01*
X177251629Y-108224385D01*
X177380200Y-108267242D01*
X177465914Y-108267242D01*
X177594486Y-108224385D01*
X177637343Y-108181528D01*
X177637343Y-107881528D01*
X177465914Y-107881528D01*
X178023057Y-108267242D02*
X178023057Y-107367242D01*
X178365914Y-107367242D01*
X178451629Y-107410100D01*
X178494486Y-107452957D01*
X178537343Y-107538671D01*
X178537343Y-107667242D01*
X178494486Y-107752957D01*
X178451629Y-107795814D01*
X178365914Y-107838671D01*
X178023057Y-107838671D01*
X178923057Y-108267242D02*
X178923057Y-107367242D01*
X179523057Y-107367242D02*
X179694486Y-107367242D01*
X179780200Y-107410100D01*
X179865914Y-107495814D01*
X179908771Y-107667242D01*
X179908771Y-107967242D01*
X179865914Y-108138671D01*
X179780200Y-108224385D01*
X179694486Y-108267242D01*
X179523057Y-108267242D01*
X179437343Y-108224385D01*
X179351629Y-108138671D01*
X179308771Y-107967242D01*
X179308771Y-107667242D01*
X179351629Y-107495814D01*
X179437343Y-107410100D01*
X179523057Y-107367242D01*
X180765914Y-108267242D02*
X180251629Y-108267242D01*
X180508771Y-108267242D02*
X180508771Y-107367242D01*
X180423057Y-107495814D01*
X180337343Y-107581528D01*
X180251629Y-107624385D01*
X181108771Y-107452957D02*
X181151629Y-107410100D01*
X181237343Y-107367242D01*
X181451629Y-107367242D01*
X181537343Y-107410100D01*
X181580200Y-107452957D01*
X181623057Y-107538671D01*
X181623057Y-107624385D01*
X181580200Y-107752957D01*
X181065914Y-108267242D01*
X181623057Y-108267242D01*
X177594486Y-109950100D02*
X177508771Y-109907242D01*
X177380200Y-109907242D01*
X177251629Y-109950100D01*
X177165914Y-110035814D01*
X177123057Y-110121528D01*
X177080200Y-110292957D01*
X177080200Y-110421528D01*
X177123057Y-110592957D01*
X177165914Y-110678671D01*
X177251629Y-110764385D01*
X177380200Y-110807242D01*
X177465914Y-110807242D01*
X177594486Y-110764385D01*
X177637343Y-110721528D01*
X177637343Y-110421528D01*
X177465914Y-110421528D01*
X178023057Y-110807242D02*
X178023057Y-109907242D01*
X178365914Y-109907242D01*
X178451629Y-109950100D01*
X178494486Y-109992957D01*
X178537343Y-110078671D01*
X178537343Y-110207242D01*
X178494486Y-110292957D01*
X178451629Y-110335814D01*
X178365914Y-110378671D01*
X178023057Y-110378671D01*
X178923057Y-110807242D02*
X178923057Y-109907242D01*
X179523057Y-109907242D02*
X179694486Y-109907242D01*
X179780200Y-109950100D01*
X179865914Y-110035814D01*
X179908771Y-110207242D01*
X179908771Y-110507242D01*
X179865914Y-110678671D01*
X179780200Y-110764385D01*
X179694486Y-110807242D01*
X179523057Y-110807242D01*
X179437343Y-110764385D01*
X179351629Y-110678671D01*
X179308771Y-110507242D01*
X179308771Y-110207242D01*
X179351629Y-110035814D01*
X179437343Y-109950100D01*
X179523057Y-109907242D01*
X180765914Y-110807242D02*
X180251629Y-110807242D01*
X180508771Y-110807242D02*
X180508771Y-109907242D01*
X180423057Y-110035814D01*
X180337343Y-110121528D01*
X180251629Y-110164385D01*
X181065914Y-109907242D02*
X181623057Y-109907242D01*
X181323057Y-110250100D01*
X181451629Y-110250100D01*
X181537343Y-110292957D01*
X181580200Y-110335814D01*
X181623057Y-110421528D01*
X181623057Y-110635814D01*
X181580200Y-110721528D01*
X181537343Y-110764385D01*
X181451629Y-110807242D01*
X181194486Y-110807242D01*
X181108771Y-110764385D01*
X181065914Y-110721528D01*
X176994486Y-112447242D02*
X177294486Y-113347242D01*
X177594486Y-112447242D01*
X178408771Y-113261528D02*
X178365914Y-113304385D01*
X178237343Y-113347242D01*
X178151628Y-113347242D01*
X178023057Y-113304385D01*
X177937343Y-113218671D01*
X177894486Y-113132957D01*
X177851628Y-112961528D01*
X177851628Y-112832957D01*
X177894486Y-112661528D01*
X177937343Y-112575814D01*
X178023057Y-112490100D01*
X178151628Y-112447242D01*
X178237343Y-112447242D01*
X178365914Y-112490100D01*
X178408771Y-112532957D01*
X179308771Y-113261528D02*
X179265914Y-113304385D01*
X179137343Y-113347242D01*
X179051628Y-113347242D01*
X178923057Y-113304385D01*
X178837343Y-113218671D01*
X178794486Y-113132957D01*
X178751628Y-112961528D01*
X178751628Y-112832957D01*
X178794486Y-112661528D01*
X178837343Y-112575814D01*
X178923057Y-112490100D01*
X179051628Y-112447242D01*
X179137343Y-112447242D01*
X179265914Y-112490100D01*
X179308771Y-112532957D01*
X147517619Y-118085952D02*
X147470000Y-118038333D01*
X147422380Y-117943095D01*
X147422380Y-117705000D01*
X147470000Y-117609761D01*
X147517619Y-117562142D01*
X147612857Y-117514523D01*
X147708095Y-117514523D01*
X147850952Y-117562142D01*
X148422380Y-118133571D01*
X148422380Y-117514523D01*
X148327142Y-117085952D02*
X148374761Y-117038333D01*
X148422380Y-117085952D01*
X148374761Y-117133571D01*
X148327142Y-117085952D01*
X148422380Y-117085952D01*
X147517619Y-116657380D02*
X147470000Y-116609761D01*
X147422380Y-116514523D01*
X147422380Y-116276428D01*
X147470000Y-116181190D01*
X147517619Y-116133571D01*
X147612857Y-116085952D01*
X147708095Y-116085952D01*
X147850952Y-116133571D01*
X148422380Y-116705000D01*
X148422380Y-116085952D01*
X148422380Y-114895476D02*
X147422380Y-114895476D01*
X148422380Y-114324047D02*
X147850952Y-114752619D01*
X147422380Y-114324047D02*
X147993809Y-114895476D01*
D12*
X146375714Y-116325000D02*
X146032857Y-116565000D01*
X146375714Y-116736428D02*
X145655714Y-116736428D01*
X145655714Y-116462142D01*
X145690000Y-116393571D01*
X145724285Y-116359285D01*
X145792857Y-116325000D01*
X145895714Y-116325000D01*
X145964285Y-116359285D01*
X145998571Y-116393571D01*
X146032857Y-116462142D01*
X146032857Y-116736428D01*
X145724285Y-116050714D02*
X145690000Y-116016428D01*
X145655714Y-115947857D01*
X145655714Y-115776428D01*
X145690000Y-115707857D01*
X145724285Y-115673571D01*
X145792857Y-115639285D01*
X145861428Y-115639285D01*
X145964285Y-115673571D01*
X146375714Y-116085000D01*
X146375714Y-115639285D01*
D10*
X141422380Y-116927238D02*
X141422380Y-117498666D01*
X141422380Y-117212952D02*
X140422380Y-117212952D01*
X140565238Y-117308190D01*
X140660476Y-117403428D01*
X140708095Y-117498666D01*
X141422380Y-115736761D02*
X140422380Y-115736761D01*
X141422380Y-115165333D02*
X140850952Y-115593904D01*
X140422380Y-115165333D02*
X140993809Y-115736761D01*
D12*
X143200714Y-116325000D02*
X142857857Y-116565000D01*
X143200714Y-116736428D02*
X142480714Y-116736428D01*
X142480714Y-116462142D01*
X142515000Y-116393571D01*
X142549285Y-116359285D01*
X142617857Y-116325000D01*
X142720714Y-116325000D01*
X142789285Y-116359285D01*
X142823571Y-116393571D01*
X142857857Y-116462142D01*
X142857857Y-116736428D01*
X143200714Y-115639285D02*
X143200714Y-116050714D01*
X143200714Y-115845000D02*
X142480714Y-115845000D01*
X142583571Y-115913571D01*
X142652142Y-115982142D01*
X142686428Y-116050714D01*
M02*
