M48
; DRILL file {KiCad (5.1.5)-3} date 2/24/2020 7:19:46 PM
; FORMAT={-:-/ absolute / metric / decimal}
; #@! TF.CreationDate,2020-02-24T19:19:46-08:00
; #@! TF.GenerationSoftware,Kicad,Pcbnew,(5.1.5)-3
; #@! TF.FileFunction,Plated,1,2,PTH
FMAT,2
METRIC
T1C0.700
T2C0.800
%
G90
G05
T1
X142.875Y-113.665
X142.875Y-118.745
X146.05Y-113.665
X146.05Y-118.745
T2
X167.919Y-95.225
X167.919Y-97.765
X167.919Y-100.305
X167.919Y-102.845
X167.919Y-105.385
X167.919Y-107.925
X167.919Y-110.465
X167.919Y-113.005
X175.539Y-95.225
X175.539Y-97.765
X175.539Y-100.305
X175.539Y-102.845
X175.539Y-105.385
X175.539Y-107.925
X175.539Y-110.465
X175.539Y-113.005
X137.465Y-85.09
X137.465Y-87.63
X137.465Y-90.17
X137.465Y-92.71
X137.465Y-95.25
X137.465Y-97.79
X137.465Y-100.33
X137.465Y-102.87
X137.465Y-107.95
X137.465Y-110.49
X137.465Y-113.03
X137.465Y-115.57
X137.465Y-118.11
X137.465Y-120.65
X185.725Y-75.95
X185.725Y-78.49
X185.725Y-81.03
X185.725Y-83.57
X185.725Y-86.11
X185.725Y-88.65
X185.725Y-91.19
X185.725Y-93.73
X185.725Y-96.27
X185.725Y-98.81
X185.725Y-102.87
X185.725Y-105.41
X185.725Y-107.95
X185.725Y-110.49
X185.725Y-113.03
X185.725Y-115.57
X185.725Y-118.11
X185.725Y-120.65
T0
M30
