G04 #@! TF.GenerationSoftware,KiCad,Pcbnew,(5.1.5)-3*
G04 #@! TF.CreationDate,2020-02-24T19:19:41-08:00*
G04 #@! TF.ProjectId,ESP-07,4553502d-3037-42e6-9b69-6361645f7063,rev?*
G04 #@! TF.SameCoordinates,Original*
G04 #@! TF.FileFunction,Copper,L2,Bot*
G04 #@! TF.FilePolarity,Positive*
%FSLAX46Y46*%
G04 Gerber Fmt 4.6, Leading zero omitted, Abs format (unit mm)*
G04 Created by KiCad (PCBNEW (5.1.5)-3) date 2020-02-24 19:19:41*
%MOMM*%
%LPD*%
G04 APERTURE LIST*
%ADD10C,0.100000*%
%ADD11O,1.600000X1.600000*%
%ADD12R,1.600000X1.600000*%
%ADD13O,1.400000X1.400000*%
%ADD14C,1.400000*%
%ADD15C,0.250000*%
G04 APERTURE END LIST*
D10*
G36*
X162687000Y-98552000D02*
G01*
X161925000Y-97790000D01*
X163449000Y-97790000D01*
X162687000Y-98552000D01*
G37*
X162687000Y-98552000D02*
X161925000Y-97790000D01*
X163449000Y-97790000D01*
X162687000Y-98552000D01*
G36*
X146050000Y-98552000D02*
G01*
X145288000Y-97790000D01*
X146812000Y-97790000D01*
X146050000Y-98552000D01*
G37*
X146050000Y-98552000D02*
X145288000Y-97790000D01*
X146812000Y-97790000D01*
X146050000Y-98552000D01*
G36*
X171704000Y-93345000D02*
G01*
X171069000Y-92710000D01*
X172339000Y-92710000D01*
X171704000Y-93345000D01*
G37*
X171704000Y-93345000D02*
X171069000Y-92710000D01*
X172339000Y-92710000D01*
X171704000Y-93345000D01*
D11*
X167919400Y-113004600D03*
X175539400Y-95224600D03*
X167919400Y-110464600D03*
X175539400Y-97764600D03*
X167919400Y-107924600D03*
X175539400Y-100304600D03*
X167919400Y-105384600D03*
X175539400Y-102844600D03*
X167919400Y-102844600D03*
X175539400Y-105384600D03*
X167919400Y-100304600D03*
X175539400Y-107924600D03*
X167919400Y-97764600D03*
X175539400Y-110464600D03*
X167919400Y-95224600D03*
D12*
X175539400Y-113004600D03*
D11*
X185724800Y-118110000D03*
X185724800Y-120650000D03*
X185724800Y-81030000D03*
X137464800Y-120650000D03*
X185724800Y-83570000D03*
X137464800Y-118110000D03*
X185724800Y-86110000D03*
X137464800Y-115570000D03*
X185724800Y-88650000D03*
X137464800Y-113030000D03*
X185724800Y-91190000D03*
X137464800Y-110490000D03*
X185724800Y-93730000D03*
X137464800Y-107950000D03*
X185724800Y-96270000D03*
X137464800Y-102870000D03*
X185724800Y-98810000D03*
X137464800Y-100330000D03*
X185724800Y-102870000D03*
X137464800Y-97790000D03*
X185724800Y-105410000D03*
X137464800Y-95250000D03*
X185724800Y-107950000D03*
X137464800Y-92710000D03*
X185724800Y-110490000D03*
X137464800Y-90170000D03*
X185724800Y-113030000D03*
X137464800Y-87630000D03*
X185724800Y-115570000D03*
D12*
X137464800Y-85090000D03*
D11*
X185724800Y-78490000D03*
X185724800Y-75950000D03*
D13*
X146050000Y-113665000D03*
D14*
X146050000Y-118745000D03*
D13*
X142875000Y-113665000D03*
D14*
X142875000Y-118745000D03*
D15*
X173024800Y-118110000D02*
X167919400Y-113004600D01*
X185724800Y-118110000D02*
X173024800Y-118110000D01*
X144780000Y-120650000D02*
X142875000Y-118745000D01*
X185724800Y-120650000D02*
X144780000Y-120650000D01*
X137464800Y-97790000D02*
X136017000Y-96342200D01*
X136017000Y-91617800D02*
X137464800Y-90170000D01*
X136017000Y-96342200D02*
X136017000Y-91617800D01*
X167919400Y-96355970D02*
X167919400Y-97764600D01*
X167919400Y-95224600D02*
X167919400Y-96355970D01*
X137490200Y-97764600D02*
X137464800Y-97790000D01*
X167919400Y-102844600D02*
X164820600Y-102844600D01*
X162712400Y-100736400D02*
X162712400Y-97764600D01*
X164820600Y-102844600D02*
X162712400Y-100736400D01*
X167919400Y-97764600D02*
X162712400Y-97764600D01*
X146050000Y-97790000D02*
X146075400Y-97764600D01*
X146050000Y-113665000D02*
X146050000Y-97790000D01*
X162712400Y-97764600D02*
X146075400Y-97764600D01*
X146075400Y-97764600D02*
X137490200Y-97764600D01*
X176589400Y-113004600D02*
X178181000Y-111413000D01*
X175539400Y-113004600D02*
X176589400Y-113004600D01*
X178181000Y-111413000D02*
X178181000Y-93599000D01*
X178181000Y-93599000D02*
X177292000Y-92710000D01*
X174408030Y-100304600D02*
X171704000Y-97600570D01*
X175539400Y-100304600D02*
X174408030Y-100304600D01*
X171704000Y-97600570D02*
X171704000Y-92710000D01*
X177292000Y-92710000D02*
X171704000Y-92710000D01*
X171704000Y-92710000D02*
X137464800Y-92710000D01*
X167919400Y-110464600D02*
X164109400Y-110464600D01*
X164109400Y-110464600D02*
X155829000Y-118745000D01*
X155829000Y-118745000D02*
X146050000Y-118745000D01*
X146050000Y-118745000D02*
X144526000Y-117221000D01*
X144526000Y-115316000D02*
X142875000Y-113665000D01*
X144526000Y-117221000D02*
X144526000Y-115316000D01*
M02*
