G04 #@! TF.GenerationSoftware,KiCad,Pcbnew,(5.1.5)-3*
G04 #@! TF.CreationDate,2020-02-23T08:40:36-08:00*
G04 #@! TF.ProjectId,ESP-07,4553502d-3037-42e6-9b69-6361645f7063,rev?*
G04 #@! TF.SameCoordinates,Original*
G04 #@! TF.FileFunction,Soldermask,Top*
G04 #@! TF.FilePolarity,Negative*
%FSLAX46Y46*%
G04 Gerber Fmt 4.6, Leading zero omitted, Abs format (unit mm)*
G04 Created by KiCad (PCBNEW (5.1.5)-3) date 2020-02-23 08:40:36*
%MOMM*%
%LPD*%
G04 APERTURE LIST*
%ADD10O,1.600000X1.600000*%
%ADD11R,1.600000X1.600000*%
%ADD12O,1.400000X1.400000*%
%ADD13C,1.400000*%
G04 APERTURE END LIST*
D10*
X167919400Y-113004600D03*
X175539400Y-95224600D03*
X167919400Y-110464600D03*
X175539400Y-97764600D03*
X167919400Y-107924600D03*
X175539400Y-100304600D03*
X167919400Y-105384600D03*
X175539400Y-102844600D03*
X167919400Y-102844600D03*
X175539400Y-105384600D03*
X167919400Y-100304600D03*
X175539400Y-107924600D03*
X167919400Y-97764600D03*
X175539400Y-110464600D03*
X167919400Y-95224600D03*
D11*
X175539400Y-113004600D03*
D10*
X185724800Y-118110000D03*
X185724800Y-120650000D03*
X185724800Y-81030000D03*
X137464800Y-120650000D03*
X185724800Y-83570000D03*
X137464800Y-118110000D03*
X185724800Y-86110000D03*
X137464800Y-115570000D03*
X185724800Y-88650000D03*
X137464800Y-113030000D03*
X185724800Y-91190000D03*
X137464800Y-110490000D03*
X185724800Y-93730000D03*
X137464800Y-107950000D03*
X185724800Y-96270000D03*
X137464800Y-102870000D03*
X185724800Y-98810000D03*
X137464800Y-100330000D03*
X185724800Y-102870000D03*
X137464800Y-97790000D03*
X185724800Y-105410000D03*
X137464800Y-95250000D03*
X185724800Y-107950000D03*
X137464800Y-92710000D03*
X185724800Y-110490000D03*
X137464800Y-90170000D03*
X185724800Y-113030000D03*
X137464800Y-87630000D03*
X185724800Y-115570000D03*
D11*
X137464800Y-85090000D03*
D10*
X185724800Y-78490000D03*
X185724800Y-75950000D03*
D12*
X146050000Y-113665000D03*
D13*
X146050000Y-118745000D03*
D12*
X142875000Y-113665000D03*
D13*
X142875000Y-118745000D03*
M02*
