G04 #@! TF.GenerationSoftware,KiCad,Pcbnew,(5.1.5)-3*
G04 #@! TF.CreationDate,2020-02-23T10:38:10-08:00*
G04 #@! TF.ProjectId,ESP-07,4553502d-3037-42e6-9b69-6361645f7063,rev?*
G04 #@! TF.SameCoordinates,Original*
G04 #@! TF.FileFunction,Legend,Bot*
G04 #@! TF.FilePolarity,Positive*
%FSLAX46Y46*%
G04 Gerber Fmt 4.6, Leading zero omitted, Abs format (unit mm)*
G04 Created by KiCad (PCBNEW (5.1.5)-3) date 2020-02-23 10:38:10*
%MOMM*%
%LPD*%
G04 APERTURE LIST*
%ADD10C,0.200000*%
%ADD11C,0.150000*%
%ADD12C,0.300000*%
G04 APERTURE END LIST*
D10*
X145923067Y-93725867D02*
G75*
G02X145415000Y-93726000I-254067J126867D01*
G01*
D11*
X148660904Y-96845380D02*
X148660904Y-95845380D01*
X148327571Y-96559666D01*
X147994238Y-95845380D01*
X147994238Y-96845380D01*
X147089476Y-96845380D02*
X147089476Y-96321571D01*
X147137095Y-96226333D01*
X147232333Y-96178714D01*
X147422809Y-96178714D01*
X147518047Y-96226333D01*
X147089476Y-96797761D02*
X147184714Y-96845380D01*
X147422809Y-96845380D01*
X147518047Y-96797761D01*
X147565666Y-96702523D01*
X147565666Y-96607285D01*
X147518047Y-96512047D01*
X147422809Y-96464428D01*
X147184714Y-96464428D01*
X147089476Y-96416809D01*
X146613285Y-96845380D02*
X146613285Y-96178714D01*
X146613285Y-96369190D02*
X146565666Y-96273952D01*
X146518047Y-96226333D01*
X146422809Y-96178714D01*
X146327571Y-96178714D01*
X145565666Y-96797761D02*
X145660904Y-96845380D01*
X145851380Y-96845380D01*
X145946619Y-96797761D01*
X145994238Y-96750142D01*
X146041857Y-96654904D01*
X146041857Y-96369190D01*
X145994238Y-96273952D01*
X145946619Y-96226333D01*
X145851380Y-96178714D01*
X145660904Y-96178714D01*
X145565666Y-96226333D01*
X145137095Y-96845380D02*
X145137095Y-95845380D01*
X144708523Y-96845380D02*
X144708523Y-96321571D01*
X144756142Y-96226333D01*
X144851380Y-96178714D01*
X144994238Y-96178714D01*
X145089476Y-96226333D01*
X145137095Y-96273952D01*
X143518047Y-95940619D02*
X143470428Y-95893000D01*
X143375190Y-95845380D01*
X143137095Y-95845380D01*
X143041857Y-95893000D01*
X142994238Y-95940619D01*
X142946619Y-96035857D01*
X142946619Y-96131095D01*
X142994238Y-96273952D01*
X143565666Y-96845380D01*
X142946619Y-96845380D01*
X142327571Y-95845380D02*
X142232333Y-95845380D01*
X142137095Y-95893000D01*
X142089476Y-95940619D01*
X142041857Y-96035857D01*
X141994238Y-96226333D01*
X141994238Y-96464428D01*
X142041857Y-96654904D01*
X142089476Y-96750142D01*
X142137095Y-96797761D01*
X142232333Y-96845380D01*
X142327571Y-96845380D01*
X142422809Y-96797761D01*
X142470428Y-96750142D01*
X142518047Y-96654904D01*
X142565666Y-96464428D01*
X142565666Y-96226333D01*
X142518047Y-96035857D01*
X142470428Y-95940619D01*
X142422809Y-95893000D01*
X142327571Y-95845380D01*
X141613285Y-95940619D02*
X141565666Y-95893000D01*
X141470428Y-95845380D01*
X141232333Y-95845380D01*
X141137095Y-95893000D01*
X141089476Y-95940619D01*
X141041857Y-96035857D01*
X141041857Y-96131095D01*
X141089476Y-96273952D01*
X141660904Y-96845380D01*
X141041857Y-96845380D01*
X140422809Y-95845380D02*
X140327571Y-95845380D01*
X140232333Y-95893000D01*
X140184714Y-95940619D01*
X140137095Y-96035857D01*
X140089476Y-96226333D01*
X140089476Y-96464428D01*
X140137095Y-96654904D01*
X140184714Y-96750142D01*
X140232333Y-96797761D01*
X140327571Y-96845380D01*
X140422809Y-96845380D01*
X140518047Y-96797761D01*
X140565666Y-96750142D01*
X140613285Y-96654904D01*
X140660904Y-96464428D01*
X140660904Y-96226333D01*
X140613285Y-96035857D01*
X140565666Y-95940619D01*
X140518047Y-95893000D01*
X140422809Y-95845380D01*
D12*
X151097571Y-95293571D02*
X151097571Y-93793571D01*
X151097571Y-94365000D02*
X150954714Y-94293571D01*
X150669000Y-94293571D01*
X150526142Y-94365000D01*
X150454714Y-94436428D01*
X150383285Y-94579285D01*
X150383285Y-95007857D01*
X150454714Y-95150714D01*
X150526142Y-95222142D01*
X150669000Y-95293571D01*
X150954714Y-95293571D01*
X151097571Y-95222142D01*
X149883285Y-94293571D02*
X149526142Y-95293571D01*
X149169000Y-94293571D02*
X149526142Y-95293571D01*
X149669000Y-95650714D01*
X149740428Y-95722142D01*
X149883285Y-95793571D01*
X146597571Y-95293571D02*
X147097571Y-94579285D01*
X147454714Y-95293571D02*
X147454714Y-93793571D01*
X146883285Y-93793571D01*
X146740428Y-93865000D01*
X146669000Y-93936428D01*
X146597571Y-94079285D01*
X146597571Y-94293571D01*
X146669000Y-94436428D01*
X146740428Y-94507857D01*
X146883285Y-94579285D01*
X147454714Y-94579285D01*
X145311857Y-95293571D02*
X145311857Y-94507857D01*
X145383285Y-94365000D01*
X145526142Y-94293571D01*
X145811857Y-94293571D01*
X145954714Y-94365000D01*
X145311857Y-95222142D02*
X145454714Y-95293571D01*
X145811857Y-95293571D01*
X145954714Y-95222142D01*
X146026142Y-95079285D01*
X146026142Y-94936428D01*
X145954714Y-94793571D01*
X145811857Y-94722142D01*
X145454714Y-94722142D01*
X145311857Y-94650714D01*
X144740428Y-94293571D02*
X143954714Y-94293571D01*
X144740428Y-95293571D01*
X143954714Y-95293571D01*
X143526142Y-94293571D02*
X143169000Y-95293571D01*
X142811857Y-94293571D01*
X141597571Y-95293571D02*
X141597571Y-94507857D01*
X141669000Y-94365000D01*
X141811857Y-94293571D01*
X142097571Y-94293571D01*
X142240428Y-94365000D01*
X141597571Y-95222142D02*
X141740428Y-95293571D01*
X142097571Y-95293571D01*
X142240428Y-95222142D01*
X142311857Y-95079285D01*
X142311857Y-94936428D01*
X142240428Y-94793571D01*
X142097571Y-94722142D01*
X141740428Y-94722142D01*
X141597571Y-94650714D01*
X140883285Y-94293571D02*
X140883285Y-95293571D01*
X140883285Y-94436428D02*
X140811857Y-94365000D01*
X140669000Y-94293571D01*
X140454714Y-94293571D01*
X140311857Y-94365000D01*
X140240428Y-94507857D01*
X140240428Y-95293571D01*
M02*
