G04 #@! TF.GenerationSoftware,KiCad,Pcbnew,(5.1.5)-3*
G04 #@! TF.CreationDate,2020-02-22T11:17:49-08:00*
G04 #@! TF.ProjectId,ESP07,45535030-372e-46b6-9963-61645f706362,rev?*
G04 #@! TF.SameCoordinates,Original*
G04 #@! TF.FileFunction,Legend,Bot*
G04 #@! TF.FilePolarity,Positive*
%FSLAX46Y46*%
G04 Gerber Fmt 4.6, Leading zero omitted, Abs format (unit mm)*
G04 Created by KiCad (PCBNEW (5.1.5)-3) date 2020-02-22 11:17:49*
%MOMM*%
%LPD*%
G04 APERTURE LIST*
%ADD10C,0.150000*%
%ADD11C,0.250000*%
%ADD12C,0.300000*%
G04 APERTURE END LIST*
D10*
X132480095Y-99929523D02*
X133280095Y-99929523D01*
X132708666Y-99662857D01*
X133280095Y-99396190D01*
X132480095Y-99396190D01*
X132480095Y-98672380D02*
X132899142Y-98672380D01*
X132975333Y-98710476D01*
X133013428Y-98786666D01*
X133013428Y-98939047D01*
X132975333Y-99015238D01*
X132518190Y-98672380D02*
X132480095Y-98748571D01*
X132480095Y-98939047D01*
X132518190Y-99015238D01*
X132594380Y-99053333D01*
X132670571Y-99053333D01*
X132746761Y-99015238D01*
X132784857Y-98939047D01*
X132784857Y-98748571D01*
X132822952Y-98672380D01*
X132480095Y-98291428D02*
X133013428Y-98291428D01*
X132861047Y-98291428D02*
X132937238Y-98253333D01*
X132975333Y-98215238D01*
X133013428Y-98139047D01*
X133013428Y-98062857D01*
X132518190Y-97453333D02*
X132480095Y-97529523D01*
X132480095Y-97681904D01*
X132518190Y-97758095D01*
X132556285Y-97796190D01*
X132632476Y-97834285D01*
X132861047Y-97834285D01*
X132937238Y-97796190D01*
X132975333Y-97758095D01*
X133013428Y-97681904D01*
X133013428Y-97529523D01*
X132975333Y-97453333D01*
X132480095Y-97110476D02*
X133280095Y-97110476D01*
X132480095Y-96767619D02*
X132899142Y-96767619D01*
X132975333Y-96805714D01*
X133013428Y-96881904D01*
X133013428Y-96996190D01*
X132975333Y-97072380D01*
X132937238Y-97110476D01*
X133203904Y-95815238D02*
X133242000Y-95777142D01*
X133280095Y-95700952D01*
X133280095Y-95510476D01*
X133242000Y-95434285D01*
X133203904Y-95396190D01*
X133127714Y-95358095D01*
X133051523Y-95358095D01*
X132937238Y-95396190D01*
X132480095Y-95853333D01*
X132480095Y-95358095D01*
X133280095Y-94862857D02*
X133280095Y-94786666D01*
X133242000Y-94710476D01*
X133203904Y-94672380D01*
X133127714Y-94634285D01*
X132975333Y-94596190D01*
X132784857Y-94596190D01*
X132632476Y-94634285D01*
X132556285Y-94672380D01*
X132518190Y-94710476D01*
X132480095Y-94786666D01*
X132480095Y-94862857D01*
X132518190Y-94939047D01*
X132556285Y-94977142D01*
X132632476Y-95015238D01*
X132784857Y-95053333D01*
X132975333Y-95053333D01*
X133127714Y-95015238D01*
X133203904Y-94977142D01*
X133242000Y-94939047D01*
X133280095Y-94862857D01*
X133203904Y-94291428D02*
X133242000Y-94253333D01*
X133280095Y-94177142D01*
X133280095Y-93986666D01*
X133242000Y-93910476D01*
X133203904Y-93872380D01*
X133127714Y-93834285D01*
X133051523Y-93834285D01*
X132937238Y-93872380D01*
X132480095Y-94329523D01*
X132480095Y-93834285D01*
X133280095Y-93339047D02*
X133280095Y-93262857D01*
X133242000Y-93186666D01*
X133203904Y-93148571D01*
X133127714Y-93110476D01*
X132975333Y-93072380D01*
X132784857Y-93072380D01*
X132632476Y-93110476D01*
X132556285Y-93148571D01*
X132518190Y-93186666D01*
X132480095Y-93262857D01*
X132480095Y-93339047D01*
X132518190Y-93415238D01*
X132556285Y-93453333D01*
X132632476Y-93491428D01*
X132784857Y-93529523D01*
X132975333Y-93529523D01*
X133127714Y-93491428D01*
X133203904Y-93453333D01*
X133242000Y-93415238D01*
X133280095Y-93339047D01*
D11*
X136398000Y-100584000D02*
G75*
G02X136398000Y-100076000I254000J254000D01*
G01*
D12*
X134477238Y-107568095D02*
X136477238Y-107568095D01*
X135715333Y-107568095D02*
X135810571Y-107377619D01*
X135810571Y-106996666D01*
X135715333Y-106806190D01*
X135620095Y-106710952D01*
X135429619Y-106615714D01*
X134858190Y-106615714D01*
X134667714Y-106710952D01*
X134572476Y-106806190D01*
X134477238Y-106996666D01*
X134477238Y-107377619D01*
X134572476Y-107568095D01*
X135810571Y-105949047D02*
X134477238Y-105472857D01*
X135810571Y-104996666D02*
X134477238Y-105472857D01*
X134001047Y-105663333D01*
X133905809Y-105758571D01*
X133810571Y-105949047D01*
X134477238Y-101568095D02*
X135429619Y-102234761D01*
X134477238Y-102710952D02*
X136477238Y-102710952D01*
X136477238Y-101949047D01*
X136382000Y-101758571D01*
X136286761Y-101663333D01*
X136096285Y-101568095D01*
X135810571Y-101568095D01*
X135620095Y-101663333D01*
X135524857Y-101758571D01*
X135429619Y-101949047D01*
X135429619Y-102710952D01*
X134477238Y-99853809D02*
X135524857Y-99853809D01*
X135715333Y-99949047D01*
X135810571Y-100139523D01*
X135810571Y-100520476D01*
X135715333Y-100710952D01*
X134572476Y-99853809D02*
X134477238Y-100044285D01*
X134477238Y-100520476D01*
X134572476Y-100710952D01*
X134762952Y-100806190D01*
X134953428Y-100806190D01*
X135143904Y-100710952D01*
X135239142Y-100520476D01*
X135239142Y-100044285D01*
X135334380Y-99853809D01*
X135810571Y-99091904D02*
X135810571Y-98044285D01*
X134477238Y-99091904D01*
X134477238Y-98044285D01*
X135810571Y-97472857D02*
X134477238Y-96996666D01*
X135810571Y-96520476D01*
X134477238Y-94901428D02*
X135524857Y-94901428D01*
X135715333Y-94996666D01*
X135810571Y-95187142D01*
X135810571Y-95568095D01*
X135715333Y-95758571D01*
X134572476Y-94901428D02*
X134477238Y-95091904D01*
X134477238Y-95568095D01*
X134572476Y-95758571D01*
X134762952Y-95853809D01*
X134953428Y-95853809D01*
X135143904Y-95758571D01*
X135239142Y-95568095D01*
X135239142Y-95091904D01*
X135334380Y-94901428D01*
X135810571Y-93949047D02*
X134477238Y-93949047D01*
X135620095Y-93949047D02*
X135715333Y-93853809D01*
X135810571Y-93663333D01*
X135810571Y-93377619D01*
X135715333Y-93187142D01*
X135524857Y-93091904D01*
X134477238Y-93091904D01*
M02*
