M48
; DRILL file {KiCad (5.1.5)-3} date 2/22/2020 11:18:30 AM
; FORMAT={-:-/ absolute / metric / decimal}
; #@! TF.CreationDate,2020-02-22T11:18:30-08:00
; #@! TF.GenerationSoftware,Kicad,Pcbnew,(5.1.5)-3
; #@! TF.FileFunction,Plated,1,2,PTH
FMAT,2
METRIC
T1C0.400
T2C0.800
%
G90
G05
T1
X142.748Y-93.297
X142.748Y-95.297
X142.748Y-97.297
X142.748Y-99.297
X142.748Y-101.297
X142.748Y-103.297
X142.748Y-105.297
X142.748Y-107.297
T2
X182.372Y-96.52
X182.372Y-104.14
X184.912Y-96.52
X184.912Y-104.14
X187.452Y-96.52
X187.452Y-104.14
X189.992Y-96.52
X189.992Y-104.14
X192.532Y-96.52
X192.532Y-104.14
X195.072Y-96.52
X195.072Y-104.14
X197.612Y-96.52
X197.612Y-104.14
X200.152Y-96.52
X200.152Y-104.14
T0
M30
