G04 #@! TF.GenerationSoftware,KiCad,Pcbnew,(5.1.5)-3*
G04 #@! TF.CreationDate,2020-02-22T11:17:49-08:00*
G04 #@! TF.ProjectId,ESP07,45535030-372e-46b6-9963-61645f706362,rev?*
G04 #@! TF.SameCoordinates,Original*
G04 #@! TF.FileFunction,Soldermask,Top*
G04 #@! TF.FilePolarity,Negative*
%FSLAX46Y46*%
G04 Gerber Fmt 4.6, Leading zero omitted, Abs format (unit mm)*
G04 Created by KiCad (PCBNEW (5.1.5)-3) date 2020-02-22 11:17:49*
%MOMM*%
%LPD*%
G04 APERTURE LIST*
%ADD10O,1.600000X1.600000*%
%ADD11R,1.600000X1.600000*%
%ADD12R,2.500000X1.000000*%
G04 APERTURE END LIST*
D10*
X200152000Y-104140000D03*
X182372000Y-96520000D03*
X197612000Y-104140000D03*
X184912000Y-96520000D03*
X195072000Y-104140000D03*
X187452000Y-96520000D03*
X192532000Y-104140000D03*
X189992000Y-96520000D03*
X189992000Y-104140000D03*
X192532000Y-96520000D03*
X187452000Y-104140000D03*
X195072000Y-96520000D03*
X184912000Y-104140000D03*
X197612000Y-96520000D03*
X182372000Y-104140000D03*
D11*
X200152000Y-96520000D03*
D12*
X176754000Y-105297000D03*
X176754000Y-107297000D03*
X176754000Y-103297000D03*
X176754000Y-95297000D03*
X176754000Y-93297000D03*
X176754000Y-97297000D03*
X176754000Y-99297000D03*
X176754000Y-101297000D03*
X168754000Y-107297000D03*
X168754000Y-97297000D03*
X168754000Y-105297000D03*
X168754000Y-103297000D03*
X168754000Y-101297000D03*
X168754000Y-95297000D03*
X168754000Y-93297000D03*
X168754000Y-99297000D03*
X131054000Y-99297000D03*
X131054000Y-101297000D03*
X131054000Y-93297000D03*
X131054000Y-103297000D03*
X131054000Y-95297000D03*
X131054000Y-107297000D03*
X131054000Y-97297000D03*
X131054000Y-105297000D03*
X139054000Y-93297000D03*
X139054000Y-97297000D03*
X139054000Y-105297000D03*
X139054000Y-95297000D03*
X139054000Y-99297000D03*
X139054000Y-101297000D03*
X139054000Y-103297000D03*
X139054000Y-107297000D03*
X145054000Y-93297000D03*
X145054000Y-95297000D03*
X145054000Y-97297000D03*
X145054000Y-99297000D03*
X145054000Y-101297000D03*
X145054000Y-103297000D03*
X145054000Y-105297000D03*
X145054000Y-107297000D03*
X160254000Y-107297000D03*
X160254000Y-105297000D03*
X160254000Y-103297000D03*
X160254000Y-101297000D03*
X160254000Y-99297000D03*
X160254000Y-97297000D03*
X160254000Y-95297000D03*
X160254000Y-93297000D03*
M02*
