G04 #@! TF.GenerationSoftware,KiCad,Pcbnew,(5.1.5)-3*
G04 #@! TF.CreationDate,2020-02-22T11:17:48-08:00*
G04 #@! TF.ProjectId,ESP07,45535030-372e-46b6-9963-61645f706362,rev?*
G04 #@! TF.SameCoordinates,Original*
G04 #@! TF.FileFunction,Copper,L2,Bot*
G04 #@! TF.FilePolarity,Positive*
%FSLAX46Y46*%
G04 Gerber Fmt 4.6, Leading zero omitted, Abs format (unit mm)*
G04 Created by KiCad (PCBNEW (5.1.5)-3) date 2020-02-22 11:17:48*
%MOMM*%
%LPD*%
G04 APERTURE LIST*
%ADD10O,1.600000X1.600000*%
%ADD11R,1.600000X1.600000*%
%ADD12C,0.800000*%
%ADD13C,0.250000*%
G04 APERTURE END LIST*
D10*
X200152000Y-104140000D03*
X182372000Y-96520000D03*
X197612000Y-104140000D03*
X184912000Y-96520000D03*
X195072000Y-104140000D03*
X187452000Y-96520000D03*
X192532000Y-104140000D03*
X189992000Y-96520000D03*
X189992000Y-104140000D03*
X192532000Y-96520000D03*
X187452000Y-104140000D03*
X195072000Y-96520000D03*
X184912000Y-104140000D03*
X197612000Y-96520000D03*
X182372000Y-104140000D03*
D11*
X200152000Y-96520000D03*
D12*
X142748000Y-93297000D03*
X142748000Y-95297000D03*
X142748000Y-97297000D03*
X142748000Y-99297000D03*
X142748000Y-101297000D03*
X142748000Y-103297000D03*
X142748000Y-105297000D03*
X142748000Y-107297000D03*
D13*
X189192001Y-97319999D02*
X189992000Y-96520000D01*
X143147999Y-99696999D02*
X186815001Y-99696999D01*
X186815001Y-99696999D02*
X189192001Y-97319999D01*
X142748000Y-99297000D02*
X143147999Y-99696999D01*
X142748000Y-101297000D02*
X143897991Y-100147009D01*
X188904991Y-100147009D02*
X192532000Y-96520000D01*
X143897991Y-100147009D02*
X188904991Y-100147009D01*
X142748000Y-93297000D02*
X147679990Y-98228990D01*
X180663010Y-98228990D02*
X182372000Y-96520000D01*
X147679990Y-98228990D02*
X180663010Y-98228990D01*
X142748000Y-103297000D02*
X145447981Y-100597019D01*
X190994981Y-100597019D02*
X195072000Y-96520000D01*
X145447981Y-100597019D02*
X190994981Y-100597019D01*
X142748000Y-95297000D02*
X146130000Y-98679000D01*
X182753000Y-98679000D02*
X184912000Y-96520000D01*
X146130000Y-98679000D02*
X182753000Y-98679000D01*
X143313685Y-107297000D02*
X149113646Y-101497039D01*
X142748000Y-107297000D02*
X143313685Y-107297000D01*
X200152000Y-97570000D02*
X200152000Y-96520000D01*
X196224961Y-101497039D02*
X200152000Y-97570000D01*
X149113646Y-101497039D02*
X196224961Y-101497039D01*
X186652001Y-97319999D02*
X187452000Y-96520000D01*
X145943600Y-99129010D02*
X184842990Y-99129010D01*
X144111590Y-97297000D02*
X145943600Y-99129010D01*
X184842990Y-99129010D02*
X186652001Y-97319999D01*
X142748000Y-97297000D02*
X144111590Y-97297000D01*
X142748000Y-105297000D02*
X146997971Y-101047029D01*
X193084971Y-101047029D02*
X197612000Y-96520000D01*
X146997971Y-101047029D02*
X193084971Y-101047029D01*
M02*
