G04 #@! TF.GenerationSoftware,KiCad,Pcbnew,(5.1.5)-3*
G04 #@! TF.CreationDate,2020-02-23T10:41:30-08:00*
G04 #@! TF.ProjectId,ESP07,45535030-372e-46b6-9963-61645f706362,rev?*
G04 #@! TF.SameCoordinates,Original*
G04 #@! TF.FileFunction,Copper,L1,Top*
G04 #@! TF.FilePolarity,Positive*
%FSLAX46Y46*%
G04 Gerber Fmt 4.6, Leading zero omitted, Abs format (unit mm)*
G04 Created by KiCad (PCBNEW (5.1.5)-3) date 2020-02-23 10:41:30*
%MOMM*%
%LPD*%
G04 APERTURE LIST*
%ADD10O,1.600000X1.600000*%
%ADD11R,1.600000X1.600000*%
%ADD12R,2.500000X1.000000*%
%ADD13C,0.800000*%
%ADD14C,0.250000*%
G04 APERTURE END LIST*
D10*
X200253600Y-104140000D03*
X182473600Y-96520000D03*
X197713600Y-104140000D03*
X185013600Y-96520000D03*
X195173600Y-104140000D03*
X187553600Y-96520000D03*
X192633600Y-104140000D03*
X190093600Y-96520000D03*
X190093600Y-104140000D03*
X192633600Y-96520000D03*
X187553600Y-104140000D03*
X195173600Y-96520000D03*
X185013600Y-104140000D03*
X197713600Y-96520000D03*
X182473600Y-104140000D03*
D11*
X200253600Y-96520000D03*
D12*
X176754000Y-105297000D03*
X176754000Y-107297000D03*
X176754000Y-103297000D03*
X176754000Y-95297000D03*
X176754000Y-93297000D03*
X176754000Y-97297000D03*
X176754000Y-99297000D03*
X176754000Y-101297000D03*
X168754000Y-107297000D03*
X168754000Y-97297000D03*
X168754000Y-105297000D03*
X168754000Y-103297000D03*
X168754000Y-101297000D03*
X168754000Y-95297000D03*
X168754000Y-93297000D03*
X168754000Y-99297000D03*
X131054000Y-99297000D03*
X131054000Y-101297000D03*
X131054000Y-93297000D03*
X131054000Y-103297000D03*
X131054000Y-95297000D03*
X131054000Y-107297000D03*
X131054000Y-97297000D03*
X131054000Y-105297000D03*
X139054000Y-93297000D03*
X139054000Y-97297000D03*
X139054000Y-105297000D03*
X139054000Y-95297000D03*
X139054000Y-99297000D03*
X139054000Y-101297000D03*
X139054000Y-103297000D03*
X139054000Y-107297000D03*
X145054000Y-93297000D03*
X145054000Y-95297000D03*
X145054000Y-97297000D03*
X145054000Y-99297000D03*
X145054000Y-101297000D03*
X145054000Y-103297000D03*
X145054000Y-105297000D03*
X145054000Y-107297000D03*
X160254000Y-107297000D03*
X160254000Y-105297000D03*
X160254000Y-103297000D03*
X160254000Y-101297000D03*
X160254000Y-99297000D03*
X160254000Y-97297000D03*
X160254000Y-95297000D03*
X160254000Y-93297000D03*
D13*
X142748000Y-99297000D03*
X142748000Y-101297000D03*
X142748000Y-93297000D03*
X142748000Y-103297000D03*
X142748000Y-95297000D03*
X142748000Y-107297000D03*
X142748000Y-97297000D03*
X142748000Y-105297000D03*
D14*
X161754000Y-105297000D02*
X176754000Y-105297000D01*
X160254000Y-105297000D02*
X161754000Y-105297000D01*
X179070000Y-104481000D02*
X179070000Y-103507820D01*
X176754000Y-105297000D02*
X178254000Y-105297000D01*
X178254000Y-105297000D02*
X179070000Y-104481000D01*
X179070000Y-103507820D02*
X180944760Y-101633060D01*
X182405060Y-101633060D02*
X184912000Y-104140000D01*
X180944760Y-101633060D02*
X182405060Y-101633060D01*
X160254000Y-107297000D02*
X176754000Y-107297000D01*
X179215000Y-107297000D02*
X176754000Y-107297000D01*
X182372000Y-104140000D02*
X179215000Y-107297000D01*
X160254000Y-103297000D02*
X176754000Y-103297000D01*
X184495050Y-101183050D02*
X187452000Y-104140000D01*
X180758360Y-101183050D02*
X184495050Y-101183050D01*
X176754000Y-103297000D02*
X178644410Y-103297000D01*
X178644410Y-103297000D02*
X180758360Y-101183050D01*
X160254000Y-95297000D02*
X176754000Y-95297000D01*
X177083590Y-95297000D02*
X181169600Y-99383010D01*
X176754000Y-95297000D02*
X177083590Y-95297000D01*
X192855010Y-99383010D02*
X197612000Y-104140000D01*
X181169600Y-99383010D02*
X192855010Y-99383010D01*
X161754000Y-93297000D02*
X176754000Y-93297000D01*
X160254000Y-93297000D02*
X161754000Y-93297000D01*
X178254000Y-93297000D02*
X179832000Y-94875000D01*
X176754000Y-93297000D02*
X178254000Y-93297000D01*
X179832000Y-94875000D02*
X179832000Y-97409000D01*
X179832000Y-97409000D02*
X181356000Y-98933000D01*
X194945000Y-98933000D02*
X200152000Y-104140000D01*
X181356000Y-98933000D02*
X194945000Y-98933000D01*
X161754000Y-97297000D02*
X176754000Y-97297000D01*
X160254000Y-97297000D02*
X161754000Y-97297000D01*
X178447180Y-97297000D02*
X180983200Y-99833020D01*
X176754000Y-97297000D02*
X178447180Y-97297000D01*
X190765020Y-99833020D02*
X195072000Y-104140000D01*
X180983200Y-99833020D02*
X190765020Y-99833020D01*
X161754000Y-99297000D02*
X176754000Y-99297000D01*
X160254000Y-99297000D02*
X161754000Y-99297000D01*
X176754000Y-99297000D02*
X179810770Y-99297000D01*
X179810770Y-99297000D02*
X180796800Y-100283030D01*
X188675030Y-100283030D02*
X192532000Y-104140000D01*
X180796800Y-100283030D02*
X188675030Y-100283030D01*
X161754000Y-101297000D02*
X176754000Y-101297000D01*
X160254000Y-101297000D02*
X161754000Y-101297000D01*
X176754000Y-101297000D02*
X180008000Y-101297000D01*
X180591180Y-100713820D02*
X180610400Y-100733040D01*
X180008000Y-101297000D02*
X180591180Y-100713820D01*
X186585040Y-100733040D02*
X189992000Y-104140000D01*
X180610400Y-100733040D02*
X186585040Y-100733040D01*
X145054000Y-99297000D02*
X131054000Y-99297000D01*
X145054000Y-101297000D02*
X131054000Y-101297000D01*
X145054000Y-93297000D02*
X131054000Y-93297000D01*
X145054000Y-103297000D02*
X131054000Y-103297000D01*
X145054000Y-95297000D02*
X131054000Y-95297000D01*
X145054000Y-107297000D02*
X131054000Y-107297000D01*
X145054000Y-97297000D02*
X131054000Y-97297000D01*
X145054000Y-105297000D02*
X131054000Y-105297000D01*
M02*
