M48
; DRILL file {KiCad (5.1.5)-3} date 2/23/2020 10:41:39 AM
; FORMAT={-:-/ absolute / metric / decimal}
; #@! TF.CreationDate,2020-02-23T10:41:39-08:00
; #@! TF.GenerationSoftware,Kicad,Pcbnew,(5.1.5)-3
; #@! TF.FileFunction,Plated,1,2,PTH
FMAT,2
METRIC
T1C0.400
T2C0.800
%
G90
G05
T1
X142.748Y-93.297
X142.748Y-95.297
X142.748Y-97.297
X142.748Y-99.297
X142.748Y-101.297
X142.748Y-103.297
X142.748Y-105.297
X142.748Y-107.297
T2
X182.474Y-96.52
X182.474Y-104.14
X185.014Y-96.52
X185.014Y-104.14
X187.554Y-96.52
X187.554Y-104.14
X190.094Y-96.52
X190.094Y-104.14
X192.634Y-96.52
X192.634Y-104.14
X195.174Y-96.52
X195.174Y-104.14
X197.714Y-96.52
X197.714Y-104.14
X200.254Y-96.52
X200.254Y-104.14
T0
M30
