M48
; DRILL file {KiCad (5.1.5)-3} date 2/22/2020 7:18:33 PM
; FORMAT={-:-/ absolute / metric / decimal}
; #@! TF.CreationDate,2020-02-22T19:18:33-08:00
; #@! TF.GenerationSoftware,Kicad,Pcbnew,(5.1.5)-3
; #@! TF.FileFunction,Plated,1,2,PTH
FMAT,2
METRIC
T1C0.400
T2C0.800
%
G90
G05
T1
X142.748Y-93.297
X142.748Y-95.297
X142.748Y-97.297
X142.748Y-99.297
X142.748Y-101.297
X142.748Y-103.297
X142.748Y-105.297
X142.748Y-107.297
T2
X182.499Y-96.495
X182.499Y-104.115
X185.039Y-96.495
X185.039Y-104.115
X187.579Y-96.495
X187.579Y-104.115
X190.119Y-96.495
X190.119Y-104.115
X192.659Y-96.495
X192.659Y-104.115
X195.199Y-96.495
X195.199Y-104.115
X197.739Y-96.495
X197.739Y-104.115
X200.279Y-96.495
X200.279Y-104.115
T0
M30
