M48
; DRILL file {KiCad (5.1.5)-3} date 2/24/2020 7:26:47 PM
; FORMAT={-:-/ absolute / metric / decimal}
; #@! TF.CreationDate,2020-02-24T19:26:47-08:00
; #@! TF.GenerationSoftware,Kicad,Pcbnew,(5.1.5)-3
; #@! TF.FileFunction,Plated,1,2,PTH
FMAT,2
METRIC
T1C0.800
%
G90
G05
T1
X149.86Y-108.327
X149.86Y-110.867
X149.86Y-113.407
X149.86Y-115.947
X149.86Y-118.487
X149.86Y-121.027
X149.86Y-123.567
X149.86Y-126.107
X149.86Y-131.187
X149.86Y-133.727
X149.86Y-136.267
X149.86Y-138.807
X149.86Y-141.347
X149.86Y-143.887
X198.12Y-99.187
X198.12Y-101.727
X198.12Y-104.267
X198.12Y-106.807
X198.12Y-109.347
X198.12Y-111.887
X198.12Y-114.427
X198.12Y-116.967
X198.12Y-119.507
X198.12Y-122.047
X198.12Y-126.107
X198.12Y-128.647
X198.12Y-131.187
X198.12Y-133.727
X198.12Y-136.267
X198.12Y-138.807
X198.12Y-141.347
X198.12Y-143.887
X170.18Y-123.444
X170.18Y-125.984
X170.18Y-128.524
X170.18Y-131.064
X177.8Y-123.444
X177.8Y-125.984
X177.8Y-128.524
X177.8Y-131.064
T0
M30
