M48
; DRILL file {KiCad (5.1.5)-3} date 2/22/2020 6:11:13 PM
; FORMAT={-:-/ absolute / metric / decimal}
; #@! TF.CreationDate,2020-02-22T18:11:13-08:00
; #@! TF.GenerationSoftware,Kicad,Pcbnew,(5.1.5)-3
; #@! TF.FileFunction,Plated,1,2,PTH
FMAT,2
METRIC
T1C0.800
%
G90
G05
T1
X149.86Y-107.95
X149.86Y-110.49
X149.86Y-113.03
X149.86Y-115.57
X149.86Y-118.11
X149.86Y-120.65
X149.86Y-123.19
X149.86Y-125.73
X149.86Y-130.81
X149.86Y-133.35
X149.86Y-135.89
X149.86Y-138.43
X149.86Y-140.97
X149.86Y-143.51
X198.12Y-98.81
X198.12Y-101.35
X198.12Y-103.89
X198.12Y-106.43
X198.12Y-108.97
X198.12Y-111.51
X198.12Y-114.05
X198.12Y-116.59
X198.12Y-119.13
X198.12Y-121.67
X198.12Y-125.73
X198.12Y-128.27
X198.12Y-130.81
X198.12Y-133.35
X198.12Y-135.89
X198.12Y-138.43
X198.12Y-140.97
X198.12Y-143.51
X170.18Y-109.22
X170.18Y-111.76
X170.18Y-114.3
X170.18Y-116.84
X177.8Y-109.22
X177.8Y-111.76
X177.8Y-114.3
X177.8Y-116.84
T0
M30
