G04 #@! TF.GenerationSoftware,KiCad,Pcbnew,(5.1.5)-3*
G04 #@! TF.CreationDate,2020-02-24T19:26:44-08:00*
G04 #@! TF.ProjectId,ATTiny85,41545469-6e79-4383-952e-6b696361645f,rev?*
G04 #@! TF.SameCoordinates,Original*
G04 #@! TF.FileFunction,Legend,Top*
G04 #@! TF.FilePolarity,Positive*
%FSLAX46Y46*%
G04 Gerber Fmt 4.6, Leading zero omitted, Abs format (unit mm)*
G04 Created by KiCad (PCBNEW (5.1.5)-3) date 2020-02-24 19:26:44*
%MOMM*%
%LPD*%
G04 APERTURE LIST*
%ADD10C,0.150000*%
%ADD11C,0.120000*%
G04 APERTURE END LIST*
D10*
X178421860Y-144341904D02*
X178512336Y-145141904D01*
X178736145Y-144570476D01*
X178817098Y-145141904D01*
X179107574Y-144341904D01*
X179426622Y-145141904D02*
X179355193Y-145103809D01*
X179321860Y-145065714D01*
X179293288Y-144989523D01*
X179321860Y-144760952D01*
X179369479Y-144684761D01*
X179412336Y-144646666D01*
X179493288Y-144608571D01*
X179607574Y-144608571D01*
X179679002Y-144646666D01*
X179712336Y-144684761D01*
X179740907Y-144760952D01*
X179712336Y-144989523D01*
X179664717Y-145065714D01*
X179621860Y-145103809D01*
X179540907Y-145141904D01*
X179426622Y-145141904D01*
X180036145Y-145141904D02*
X180102812Y-144608571D01*
X180083764Y-144760952D02*
X180131383Y-144684761D01*
X180174241Y-144646666D01*
X180255193Y-144608571D01*
X180331383Y-144608571D01*
X180531383Y-145141904D02*
X180631383Y-144341904D01*
X180645669Y-144837142D02*
X180836145Y-145141904D01*
X180902812Y-144608571D02*
X180559955Y-144913333D01*
X181145669Y-145103809D02*
X181217098Y-145141904D01*
X181369479Y-145141904D01*
X181450431Y-145103809D01*
X181498050Y-145027619D01*
X181502812Y-144989523D01*
X181474241Y-144913333D01*
X181402812Y-144875238D01*
X181288526Y-144875238D01*
X181217098Y-144837142D01*
X181188526Y-144760952D01*
X181193288Y-144722857D01*
X181240907Y-144646666D01*
X181321860Y-144608571D01*
X181436145Y-144608571D01*
X181507574Y-144646666D01*
X182426622Y-144608571D02*
X182512336Y-145141904D01*
X182712336Y-144760952D01*
X182817098Y-145141904D01*
X183036145Y-144608571D01*
X183274241Y-145141904D02*
X183340907Y-144608571D01*
X183374241Y-144341904D02*
X183331383Y-144380000D01*
X183364717Y-144418095D01*
X183407574Y-144380000D01*
X183374241Y-144341904D01*
X183364717Y-144418095D01*
X183607574Y-144608571D02*
X183912336Y-144608571D01*
X183755193Y-144341904D02*
X183669479Y-145027619D01*
X183698050Y-145103809D01*
X183769479Y-145141904D01*
X183845669Y-145141904D01*
X184112336Y-145141904D02*
X184212336Y-144341904D01*
X184455193Y-145141904D02*
X184507574Y-144722857D01*
X184479002Y-144646666D01*
X184407574Y-144608571D01*
X184293288Y-144608571D01*
X184212336Y-144646666D01*
X184169479Y-144684761D01*
X185436145Y-144913333D02*
X185817098Y-144913333D01*
X185331383Y-145141904D02*
X185698050Y-144341904D01*
X185864717Y-145141904D01*
X186131383Y-145141904D02*
X186198050Y-144608571D01*
X186179002Y-144760952D02*
X186226622Y-144684761D01*
X186269479Y-144646666D01*
X186350431Y-144608571D01*
X186426622Y-144608571D01*
X186969479Y-145141904D02*
X187069479Y-144341904D01*
X186974241Y-145103809D02*
X186893288Y-145141904D01*
X186740907Y-145141904D01*
X186669479Y-145103809D01*
X186636145Y-145065714D01*
X186607574Y-144989523D01*
X186636145Y-144760952D01*
X186683764Y-144684761D01*
X186726622Y-144646666D01*
X186807574Y-144608571D01*
X186959955Y-144608571D01*
X187031383Y-144646666D01*
X187759955Y-144608571D02*
X187693288Y-145141904D01*
X187417098Y-144608571D02*
X187364717Y-145027619D01*
X187393288Y-145103809D01*
X187464717Y-145141904D01*
X187579002Y-145141904D01*
X187659955Y-145103809D01*
X187702812Y-145065714D01*
X188074241Y-145141904D02*
X188140907Y-144608571D01*
X188174241Y-144341904D02*
X188131383Y-144380000D01*
X188164717Y-144418095D01*
X188207574Y-144380000D01*
X188174241Y-144341904D01*
X188164717Y-144418095D01*
X188521860Y-144608571D02*
X188455193Y-145141904D01*
X188512336Y-144684761D02*
X188555193Y-144646666D01*
X188636145Y-144608571D01*
X188750431Y-144608571D01*
X188821860Y-144646666D01*
X188850431Y-144722857D01*
X188798050Y-145141904D01*
X189293288Y-145141904D02*
X189221860Y-145103809D01*
X189188526Y-145065714D01*
X189159955Y-144989523D01*
X189188526Y-144760952D01*
X189236145Y-144684761D01*
X189279002Y-144646666D01*
X189359955Y-144608571D01*
X189474241Y-144608571D01*
X189545669Y-144646666D01*
X189579002Y-144684761D01*
X189607574Y-144760952D01*
X189579002Y-144989523D01*
X189531383Y-145065714D01*
X189488526Y-145103809D01*
X189407574Y-145141904D01*
X189293288Y-145141904D01*
X190612336Y-144341904D02*
X190531383Y-144989523D01*
X190559955Y-145065714D01*
X190593288Y-145103809D01*
X190664717Y-145141904D01*
X190817098Y-145141904D01*
X190898050Y-145103809D01*
X190940907Y-145065714D01*
X190988526Y-144989523D01*
X191069479Y-144341904D01*
X191350431Y-145141904D02*
X191450431Y-144341904D01*
X191807574Y-145141904D01*
X191907574Y-144341904D01*
X192440907Y-144341904D02*
X192593288Y-144341904D01*
X192664717Y-144380000D01*
X192731383Y-144456190D01*
X192750431Y-144608571D01*
X192717098Y-144875238D01*
X192659955Y-145027619D01*
X192574241Y-145103809D01*
X192493288Y-145141904D01*
X192340907Y-145141904D01*
X192269479Y-145103809D01*
X192202812Y-145027619D01*
X192183764Y-144875238D01*
X192217098Y-144608571D01*
X192274241Y-144456190D01*
X192359955Y-144380000D01*
X192440907Y-144341904D01*
X194093288Y-145141904D02*
X193874241Y-144760952D01*
X193636145Y-145141904D02*
X193736145Y-144341904D01*
X194040907Y-144341904D01*
X194112336Y-144380000D01*
X194145669Y-144418095D01*
X194174241Y-144494285D01*
X194159955Y-144608571D01*
X194112336Y-144684761D01*
X194069479Y-144722857D01*
X193988526Y-144760952D01*
X193683764Y-144760952D01*
X194459955Y-144341904D02*
X194955193Y-144341904D01*
X194650431Y-144646666D01*
X194764717Y-144646666D01*
X194836145Y-144684761D01*
X194869479Y-144722857D01*
X194898050Y-144799047D01*
X194874241Y-144989523D01*
X194826622Y-145065714D01*
X194783764Y-145103809D01*
X194702812Y-145141904D01*
X194474241Y-145141904D01*
X194402812Y-145103809D01*
X194369479Y-145065714D01*
X182626000Y-140716000D02*
X189484000Y-140716000D01*
X156426428Y-137978571D02*
X155926428Y-137264285D01*
X155569285Y-137978571D02*
X155569285Y-136478571D01*
X156140714Y-136478571D01*
X156283571Y-136550000D01*
X156355000Y-136621428D01*
X156426428Y-136764285D01*
X156426428Y-136978571D01*
X156355000Y-137121428D01*
X156283571Y-137192857D01*
X156140714Y-137264285D01*
X155569285Y-137264285D01*
X157640714Y-137907142D02*
X157497857Y-137978571D01*
X157212142Y-137978571D01*
X157069285Y-137907142D01*
X156997857Y-137764285D01*
X156997857Y-137192857D01*
X157069285Y-137050000D01*
X157212142Y-136978571D01*
X157497857Y-136978571D01*
X157640714Y-137050000D01*
X157712142Y-137192857D01*
X157712142Y-137335714D01*
X156997857Y-137478571D01*
X158355000Y-137978571D02*
X158355000Y-136978571D01*
X158355000Y-137121428D02*
X158426428Y-137050000D01*
X158569285Y-136978571D01*
X158783571Y-136978571D01*
X158926428Y-137050000D01*
X158997857Y-137192857D01*
X158997857Y-137978571D01*
X158997857Y-137192857D02*
X159069285Y-137050000D01*
X159212142Y-136978571D01*
X159426428Y-136978571D01*
X159569285Y-137050000D01*
X159640714Y-137192857D01*
X159640714Y-137978571D01*
X160926428Y-137907142D02*
X160783571Y-137978571D01*
X160497857Y-137978571D01*
X160355000Y-137907142D01*
X160283571Y-137764285D01*
X160283571Y-137192857D01*
X160355000Y-137050000D01*
X160497857Y-136978571D01*
X160783571Y-136978571D01*
X160926428Y-137050000D01*
X160997857Y-137192857D01*
X160997857Y-137335714D01*
X160283571Y-137478571D01*
X161640714Y-137978571D02*
X161640714Y-136978571D01*
X161640714Y-137121428D02*
X161712142Y-137050000D01*
X161855000Y-136978571D01*
X162069285Y-136978571D01*
X162212142Y-137050000D01*
X162283571Y-137192857D01*
X162283571Y-137978571D01*
X162283571Y-137192857D02*
X162355000Y-137050000D01*
X162497857Y-136978571D01*
X162712142Y-136978571D01*
X162855000Y-137050000D01*
X162926428Y-137192857D01*
X162926428Y-137978571D01*
X163640714Y-137978571D02*
X163640714Y-136478571D01*
X163640714Y-137050000D02*
X163783571Y-136978571D01*
X164069285Y-136978571D01*
X164212142Y-137050000D01*
X164283571Y-137121428D01*
X164355000Y-137264285D01*
X164355000Y-137692857D01*
X164283571Y-137835714D01*
X164212142Y-137907142D01*
X164069285Y-137978571D01*
X163783571Y-137978571D01*
X163640714Y-137907142D01*
X165569285Y-137907142D02*
X165426428Y-137978571D01*
X165140714Y-137978571D01*
X164997857Y-137907142D01*
X164926428Y-137764285D01*
X164926428Y-137192857D01*
X164997857Y-137050000D01*
X165140714Y-136978571D01*
X165426428Y-136978571D01*
X165569285Y-137050000D01*
X165640714Y-137192857D01*
X165640714Y-137335714D01*
X164926428Y-137478571D01*
X166283571Y-137978571D02*
X166283571Y-136978571D01*
X166283571Y-137264285D02*
X166355000Y-137121428D01*
X166426428Y-137050000D01*
X166569285Y-136978571D01*
X166712142Y-136978571D01*
X168140714Y-136978571D02*
X168712142Y-136978571D01*
X168355000Y-136478571D02*
X168355000Y-137764285D01*
X168426428Y-137907142D01*
X168569285Y-137978571D01*
X168712142Y-137978571D01*
X169426428Y-137978571D02*
X169283571Y-137907142D01*
X169212142Y-137835714D01*
X169140714Y-137692857D01*
X169140714Y-137264285D01*
X169212142Y-137121428D01*
X169283571Y-137050000D01*
X169426428Y-136978571D01*
X169640714Y-136978571D01*
X169783571Y-137050000D01*
X169855000Y-137121428D01*
X169926428Y-137264285D01*
X169926428Y-137692857D01*
X169855000Y-137835714D01*
X169783571Y-137907142D01*
X169640714Y-137978571D01*
X169426428Y-137978571D01*
X171497857Y-136978571D02*
X172069285Y-136978571D01*
X171712142Y-137978571D02*
X171712142Y-136692857D01*
X171783571Y-136550000D01*
X171926428Y-136478571D01*
X172069285Y-136478571D01*
X172783571Y-137978571D02*
X172640714Y-137907142D01*
X172569285Y-137764285D01*
X172569285Y-136478571D01*
X173997857Y-137978571D02*
X173997857Y-137192857D01*
X173926428Y-137050000D01*
X173783571Y-136978571D01*
X173497857Y-136978571D01*
X173355000Y-137050000D01*
X173997857Y-137907142D02*
X173855000Y-137978571D01*
X173497857Y-137978571D01*
X173355000Y-137907142D01*
X173283571Y-137764285D01*
X173283571Y-137621428D01*
X173355000Y-137478571D01*
X173497857Y-137407142D01*
X173855000Y-137407142D01*
X173997857Y-137335714D01*
X174640714Y-137907142D02*
X174783571Y-137978571D01*
X175069285Y-137978571D01*
X175212142Y-137907142D01*
X175283571Y-137764285D01*
X175283571Y-137692857D01*
X175212142Y-137550000D01*
X175069285Y-137478571D01*
X174855000Y-137478571D01*
X174712142Y-137407142D01*
X174640714Y-137264285D01*
X174640714Y-137192857D01*
X174712142Y-137050000D01*
X174855000Y-136978571D01*
X175069285Y-136978571D01*
X175212142Y-137050000D01*
X175926428Y-137978571D02*
X175926428Y-136478571D01*
X176569285Y-137978571D02*
X176569285Y-137192857D01*
X176497857Y-137050000D01*
X176355000Y-136978571D01*
X176140714Y-136978571D01*
X175997857Y-137050000D01*
X175926428Y-137121428D01*
X178497857Y-136478571D02*
X178355000Y-136764285D01*
X179069285Y-137550000D02*
X179783571Y-137550000D01*
X178926428Y-137978571D02*
X179426428Y-136478571D01*
X179926428Y-137978571D01*
X180426428Y-137978571D02*
X180426428Y-136978571D01*
X180426428Y-137264285D02*
X180497857Y-137121428D01*
X180569285Y-137050000D01*
X180712142Y-136978571D01*
X180855000Y-136978571D01*
X181997857Y-137978571D02*
X181997857Y-136478571D01*
X181997857Y-137907142D02*
X181855000Y-137978571D01*
X181569285Y-137978571D01*
X181426428Y-137907142D01*
X181355000Y-137835714D01*
X181283571Y-137692857D01*
X181283571Y-137264285D01*
X181355000Y-137121428D01*
X181426428Y-137050000D01*
X181569285Y-136978571D01*
X181855000Y-136978571D01*
X181997857Y-137050000D01*
X183355000Y-136978571D02*
X183355000Y-137978571D01*
X182712142Y-136978571D02*
X182712142Y-137764285D01*
X182783571Y-137907142D01*
X182926428Y-137978571D01*
X183140714Y-137978571D01*
X183283571Y-137907142D01*
X183355000Y-137835714D01*
X184069285Y-137978571D02*
X184069285Y-136978571D01*
X184069285Y-136478571D02*
X183997857Y-136550000D01*
X184069285Y-136621428D01*
X184140714Y-136550000D01*
X184069285Y-136478571D01*
X184069285Y-136621428D01*
X184783571Y-136978571D02*
X184783571Y-137978571D01*
X184783571Y-137121428D02*
X184855000Y-137050000D01*
X184997857Y-136978571D01*
X185212142Y-136978571D01*
X185355000Y-137050000D01*
X185426428Y-137192857D01*
X185426428Y-137978571D01*
X186355000Y-137978571D02*
X186212142Y-137907142D01*
X186140714Y-137835714D01*
X186069285Y-137692857D01*
X186069285Y-137264285D01*
X186140714Y-137121428D01*
X186212142Y-137050000D01*
X186355000Y-136978571D01*
X186569285Y-136978571D01*
X186712142Y-137050000D01*
X186783571Y-137121428D01*
X186855000Y-137264285D01*
X186855000Y-137692857D01*
X186783571Y-137835714D01*
X186712142Y-137907142D01*
X186569285Y-137978571D01*
X186355000Y-137978571D01*
X187497857Y-137978571D02*
X187497857Y-136478571D01*
X188140714Y-137907142D02*
X188355000Y-137978571D01*
X188712142Y-137978571D01*
X188855000Y-137907142D01*
X188926428Y-137835714D01*
X188997857Y-137692857D01*
X188997857Y-137550000D01*
X188926428Y-137407142D01*
X188855000Y-137335714D01*
X188712142Y-137264285D01*
X188426428Y-137192857D01*
X188283571Y-137121428D01*
X188212142Y-137050000D01*
X188140714Y-136907142D01*
X188140714Y-136764285D01*
X188212142Y-136621428D01*
X188283571Y-136550000D01*
X188426428Y-136478571D01*
X188783571Y-136478571D01*
X188997857Y-136550000D01*
X189640714Y-137978571D02*
X189640714Y-136478571D01*
X190212142Y-136478571D01*
X190355000Y-136550000D01*
X190426428Y-136621428D01*
X190497857Y-136764285D01*
X190497857Y-136978571D01*
X190426428Y-137121428D01*
X190355000Y-137192857D01*
X190212142Y-137264285D01*
X189640714Y-137264285D01*
X191212142Y-136478571D02*
X191069285Y-136764285D01*
X156355000Y-140307142D02*
X156497857Y-140378571D01*
X156783571Y-140378571D01*
X156926428Y-140307142D01*
X156997857Y-140164285D01*
X156997857Y-140092857D01*
X156926428Y-139950000D01*
X156783571Y-139878571D01*
X156569285Y-139878571D01*
X156426428Y-139807142D01*
X156355000Y-139664285D01*
X156355000Y-139592857D01*
X156426428Y-139450000D01*
X156569285Y-139378571D01*
X156783571Y-139378571D01*
X156926428Y-139450000D01*
X157640714Y-140378571D02*
X157640714Y-138878571D01*
X157783571Y-139807142D02*
X158212142Y-140378571D01*
X158212142Y-139378571D02*
X157640714Y-139950000D01*
X159426428Y-140307142D02*
X159283571Y-140378571D01*
X158997857Y-140378571D01*
X158855000Y-140307142D01*
X158783571Y-140164285D01*
X158783571Y-139592857D01*
X158855000Y-139450000D01*
X158997857Y-139378571D01*
X159283571Y-139378571D01*
X159426428Y-139450000D01*
X159497857Y-139592857D01*
X159497857Y-139735714D01*
X158783571Y-139878571D01*
X159926428Y-139378571D02*
X160497857Y-139378571D01*
X160140714Y-138878571D02*
X160140714Y-140164285D01*
X160212142Y-140307142D01*
X160355000Y-140378571D01*
X160497857Y-140378571D01*
X161640714Y-140307142D02*
X161497857Y-140378571D01*
X161212142Y-140378571D01*
X161069285Y-140307142D01*
X160997857Y-140235714D01*
X160926428Y-140092857D01*
X160926428Y-139664285D01*
X160997857Y-139521428D01*
X161069285Y-139450000D01*
X161212142Y-139378571D01*
X161497857Y-139378571D01*
X161640714Y-139450000D01*
X162283571Y-140378571D02*
X162283571Y-138878571D01*
X162926428Y-140378571D02*
X162926428Y-139592857D01*
X162855000Y-139450000D01*
X162712142Y-139378571D01*
X162497857Y-139378571D01*
X162355000Y-139450000D01*
X162283571Y-139521428D01*
X164997857Y-140378571D02*
X164855000Y-140307142D01*
X164783571Y-140235714D01*
X164712142Y-140092857D01*
X164712142Y-139664285D01*
X164783571Y-139521428D01*
X164855000Y-139450000D01*
X164997857Y-139378571D01*
X165212142Y-139378571D01*
X165355000Y-139450000D01*
X165426428Y-139521428D01*
X165497857Y-139664285D01*
X165497857Y-140092857D01*
X165426428Y-140235714D01*
X165355000Y-140307142D01*
X165212142Y-140378571D01*
X164997857Y-140378571D01*
X166140714Y-139378571D02*
X166140714Y-140378571D01*
X166140714Y-139521428D02*
X166212142Y-139450000D01*
X166355000Y-139378571D01*
X166569285Y-139378571D01*
X166712142Y-139450000D01*
X166783571Y-139592857D01*
X166783571Y-140378571D01*
X168426428Y-139378571D02*
X168997857Y-139378571D01*
X168640714Y-138878571D02*
X168640714Y-140164285D01*
X168712142Y-140307142D01*
X168855000Y-140378571D01*
X168997857Y-140378571D01*
X169497857Y-140378571D02*
X169497857Y-138878571D01*
X170140714Y-140378571D02*
X170140714Y-139592857D01*
X170069285Y-139450000D01*
X169926428Y-139378571D01*
X169712142Y-139378571D01*
X169569285Y-139450000D01*
X169497857Y-139521428D01*
X171426428Y-140307142D02*
X171283571Y-140378571D01*
X170997857Y-140378571D01*
X170854999Y-140307142D01*
X170783571Y-140164285D01*
X170783571Y-139592857D01*
X170854999Y-139450000D01*
X170997857Y-139378571D01*
X171283571Y-139378571D01*
X171426428Y-139450000D01*
X171497857Y-139592857D01*
X171497857Y-139735714D01*
X170783571Y-139878571D01*
X173212142Y-139950000D02*
X173926428Y-139950000D01*
X173069285Y-140378571D02*
X173569285Y-138878571D01*
X174069285Y-140378571D01*
X174569285Y-140378571D02*
X174569285Y-139378571D01*
X174569285Y-139664285D02*
X174640714Y-139521428D01*
X174712142Y-139450000D01*
X174855000Y-139378571D01*
X174997857Y-139378571D01*
X176140714Y-140378571D02*
X176140714Y-138878571D01*
X176140714Y-140307142D02*
X175997857Y-140378571D01*
X175712142Y-140378571D01*
X175569285Y-140307142D01*
X175497857Y-140235714D01*
X175426428Y-140092857D01*
X175426428Y-139664285D01*
X175497857Y-139521428D01*
X175569285Y-139450000D01*
X175712142Y-139378571D01*
X175997857Y-139378571D01*
X176140714Y-139450000D01*
X177497857Y-139378571D02*
X177497857Y-140378571D01*
X176855000Y-139378571D02*
X176855000Y-140164285D01*
X176926428Y-140307142D01*
X177069285Y-140378571D01*
X177283571Y-140378571D01*
X177426428Y-140307142D01*
X177497857Y-140235714D01*
X178212142Y-140378571D02*
X178212142Y-139378571D01*
X178212142Y-138878571D02*
X178140714Y-138950000D01*
X178212142Y-139021428D01*
X178283571Y-138950000D01*
X178212142Y-138878571D01*
X178212142Y-139021428D01*
X178926428Y-139378571D02*
X178926428Y-140378571D01*
X178926428Y-139521428D02*
X178997857Y-139450000D01*
X179140714Y-139378571D01*
X179355000Y-139378571D01*
X179497857Y-139450000D01*
X179569285Y-139592857D01*
X179569285Y-140378571D01*
X180497857Y-140378571D02*
X180355000Y-140307142D01*
X180283571Y-140235714D01*
X180212142Y-140092857D01*
X180212142Y-139664285D01*
X180283571Y-139521428D01*
X180355000Y-139450000D01*
X180497857Y-139378571D01*
X180712142Y-139378571D01*
X180855000Y-139450000D01*
X180926428Y-139521428D01*
X180997857Y-139664285D01*
X180997857Y-140092857D01*
X180926428Y-140235714D01*
X180855000Y-140307142D01*
X180712142Y-140378571D01*
X180497857Y-140378571D01*
X182783571Y-140378571D02*
X182783571Y-138878571D01*
X182783571Y-139450000D02*
X182926428Y-139378571D01*
X183212142Y-139378571D01*
X183355000Y-139450000D01*
X183426428Y-139521428D01*
X183497857Y-139664285D01*
X183497857Y-140092857D01*
X183426428Y-140235714D01*
X183355000Y-140307142D01*
X183212142Y-140378571D01*
X182926428Y-140378571D01*
X182783571Y-140307142D01*
X184712142Y-140307142D02*
X184569285Y-140378571D01*
X184283571Y-140378571D01*
X184140714Y-140307142D01*
X184069285Y-140164285D01*
X184069285Y-139592857D01*
X184140714Y-139450000D01*
X184283571Y-139378571D01*
X184569285Y-139378571D01*
X184712142Y-139450000D01*
X184783571Y-139592857D01*
X184783571Y-139735714D01*
X184069285Y-139878571D01*
X185212142Y-139378571D02*
X185783571Y-139378571D01*
X185426428Y-140378571D02*
X185426428Y-139092857D01*
X185497857Y-138950000D01*
X185640714Y-138878571D01*
X185783571Y-138878571D01*
X186497857Y-140378571D02*
X186355000Y-140307142D01*
X186283571Y-140235714D01*
X186212142Y-140092857D01*
X186212142Y-139664285D01*
X186283571Y-139521428D01*
X186355000Y-139450000D01*
X186497857Y-139378571D01*
X186712142Y-139378571D01*
X186855000Y-139450000D01*
X186926428Y-139521428D01*
X186997857Y-139664285D01*
X186997857Y-140092857D01*
X186926428Y-140235714D01*
X186855000Y-140307142D01*
X186712142Y-140378571D01*
X186497857Y-140378571D01*
X187640714Y-140378571D02*
X187640714Y-139378571D01*
X187640714Y-139664285D02*
X187712142Y-139521428D01*
X187783571Y-139450000D01*
X187926428Y-139378571D01*
X188069285Y-139378571D01*
X189140714Y-140307142D02*
X188997857Y-140378571D01*
X188712142Y-140378571D01*
X188569285Y-140307142D01*
X188497857Y-140164285D01*
X188497857Y-139592857D01*
X188569285Y-139450000D01*
X188712142Y-139378571D01*
X188997857Y-139378571D01*
X189140714Y-139450000D01*
X189212142Y-139592857D01*
X189212142Y-139735714D01*
X188497857Y-139878571D01*
X158676428Y-141778571D02*
X159247857Y-141778571D01*
X158890714Y-141278571D02*
X158890714Y-142564285D01*
X158962142Y-142707142D01*
X159105000Y-142778571D01*
X159247857Y-142778571D01*
X159747857Y-142778571D02*
X159747857Y-141778571D01*
X159747857Y-142064285D02*
X159819285Y-141921428D01*
X159890714Y-141850000D01*
X160033571Y-141778571D01*
X160176428Y-141778571D01*
X160533571Y-141778571D02*
X160890714Y-142778571D01*
X161247857Y-141778571D02*
X160890714Y-142778571D01*
X160747857Y-143135714D01*
X160676428Y-143207142D01*
X160533571Y-143278571D01*
X161819285Y-142778571D02*
X161819285Y-141778571D01*
X161819285Y-141278571D02*
X161747857Y-141350000D01*
X161819285Y-141421428D01*
X161890714Y-141350000D01*
X161819285Y-141278571D01*
X161819285Y-141421428D01*
X162533571Y-141778571D02*
X162533571Y-142778571D01*
X162533571Y-141921428D02*
X162605000Y-141850000D01*
X162747857Y-141778571D01*
X162962142Y-141778571D01*
X163105000Y-141850000D01*
X163176428Y-141992857D01*
X163176428Y-142778571D01*
X164533571Y-141778571D02*
X164533571Y-142992857D01*
X164462142Y-143135714D01*
X164390714Y-143207142D01*
X164247857Y-143278571D01*
X164033571Y-143278571D01*
X163890714Y-143207142D01*
X164533571Y-142707142D02*
X164390714Y-142778571D01*
X164105000Y-142778571D01*
X163962142Y-142707142D01*
X163890714Y-142635714D01*
X163819285Y-142492857D01*
X163819285Y-142064285D01*
X163890714Y-141921428D01*
X163962142Y-141850000D01*
X164105000Y-141778571D01*
X164390714Y-141778571D01*
X164533571Y-141850000D01*
X166176428Y-141778571D02*
X166747857Y-141778571D01*
X166390714Y-141278571D02*
X166390714Y-142564285D01*
X166462142Y-142707142D01*
X166605000Y-142778571D01*
X166747857Y-142778571D01*
X167462142Y-142778571D02*
X167319285Y-142707142D01*
X167247857Y-142635714D01*
X167176428Y-142492857D01*
X167176428Y-142064285D01*
X167247857Y-141921428D01*
X167319285Y-141850000D01*
X167462142Y-141778571D01*
X167676428Y-141778571D01*
X167819285Y-141850000D01*
X167890714Y-141921428D01*
X167962142Y-142064285D01*
X167962142Y-142492857D01*
X167890714Y-142635714D01*
X167819285Y-142707142D01*
X167676428Y-142778571D01*
X167462142Y-142778571D01*
X170390714Y-141778571D02*
X170390714Y-142778571D01*
X169747857Y-141778571D02*
X169747857Y-142564285D01*
X169819285Y-142707142D01*
X169962142Y-142778571D01*
X170176428Y-142778571D01*
X170319285Y-142707142D01*
X170390714Y-142635714D01*
X171033571Y-142707142D02*
X171176428Y-142778571D01*
X171462142Y-142778571D01*
X171605000Y-142707142D01*
X171676428Y-142564285D01*
X171676428Y-142492857D01*
X171605000Y-142350000D01*
X171462142Y-142278571D01*
X171247857Y-142278571D01*
X171105000Y-142207142D01*
X171033571Y-142064285D01*
X171033571Y-141992857D01*
X171105000Y-141850000D01*
X171247857Y-141778571D01*
X171462142Y-141778571D01*
X171605000Y-141850000D01*
X172890714Y-142707142D02*
X172747857Y-142778571D01*
X172462142Y-142778571D01*
X172319285Y-142707142D01*
X172247857Y-142564285D01*
X172247857Y-141992857D01*
X172319285Y-141850000D01*
X172462142Y-141778571D01*
X172747857Y-141778571D01*
X172890714Y-141850000D01*
X172962142Y-141992857D01*
X172962142Y-142135714D01*
X172247857Y-142278571D01*
X174533571Y-141778571D02*
X175105000Y-141778571D01*
X174747857Y-141278571D02*
X174747857Y-142564285D01*
X174819285Y-142707142D01*
X174962142Y-142778571D01*
X175105000Y-142778571D01*
X175605000Y-142778571D02*
X175605000Y-141278571D01*
X176247857Y-142778571D02*
X176247857Y-141992857D01*
X176176428Y-141850000D01*
X176033571Y-141778571D01*
X175819285Y-141778571D01*
X175676428Y-141850000D01*
X175605000Y-141921428D01*
X176962142Y-142778571D02*
X176962142Y-141778571D01*
X176962142Y-141278571D02*
X176890714Y-141350000D01*
X176962142Y-141421428D01*
X177033571Y-141350000D01*
X176962142Y-141278571D01*
X176962142Y-141421428D01*
X177605000Y-142707142D02*
X177747857Y-142778571D01*
X178033571Y-142778571D01*
X178176428Y-142707142D01*
X178247857Y-142564285D01*
X178247857Y-142492857D01*
X178176428Y-142350000D01*
X178033571Y-142278571D01*
X177819285Y-142278571D01*
X177676428Y-142207142D01*
X177605000Y-142064285D01*
X177605000Y-141992857D01*
X177676428Y-141850000D01*
X177819285Y-141778571D01*
X178033571Y-141778571D01*
X178176428Y-141850000D01*
X180676428Y-142778571D02*
X180676428Y-141992857D01*
X180605000Y-141850000D01*
X180462142Y-141778571D01*
X180176428Y-141778571D01*
X180033571Y-141850000D01*
X180676428Y-142707142D02*
X180533571Y-142778571D01*
X180176428Y-142778571D01*
X180033571Y-142707142D01*
X179962142Y-142564285D01*
X179962142Y-142421428D01*
X180033571Y-142278571D01*
X180176428Y-142207142D01*
X180533571Y-142207142D01*
X180676428Y-142135714D01*
X182033571Y-142778571D02*
X182033571Y-141278571D01*
X182033571Y-142707142D02*
X181890714Y-142778571D01*
X181605000Y-142778571D01*
X181462142Y-142707142D01*
X181390714Y-142635714D01*
X181319285Y-142492857D01*
X181319285Y-142064285D01*
X181390714Y-141921428D01*
X181462142Y-141850000D01*
X181605000Y-141778571D01*
X181890714Y-141778571D01*
X182033571Y-141850000D01*
X183390714Y-142778571D02*
X183390714Y-141992857D01*
X183319285Y-141850000D01*
X183176428Y-141778571D01*
X182890714Y-141778571D01*
X182747857Y-141850000D01*
X183390714Y-142707142D02*
X183247857Y-142778571D01*
X182890714Y-142778571D01*
X182747857Y-142707142D01*
X182676428Y-142564285D01*
X182676428Y-142421428D01*
X182747857Y-142278571D01*
X182890714Y-142207142D01*
X183247857Y-142207142D01*
X183390714Y-142135714D01*
X184105000Y-141778571D02*
X184105000Y-143278571D01*
X184105000Y-141850000D02*
X184247857Y-141778571D01*
X184533571Y-141778571D01*
X184676428Y-141850000D01*
X184747857Y-141921428D01*
X184819285Y-142064285D01*
X184819285Y-142492857D01*
X184747857Y-142635714D01*
X184676428Y-142707142D01*
X184533571Y-142778571D01*
X184247857Y-142778571D01*
X184105000Y-142707142D01*
X185247857Y-141778571D02*
X185819285Y-141778571D01*
X185462142Y-141278571D02*
X185462142Y-142564285D01*
X185533571Y-142707142D01*
X185676428Y-142778571D01*
X185819285Y-142778571D01*
X186890714Y-142707142D02*
X186747857Y-142778571D01*
X186462142Y-142778571D01*
X186319285Y-142707142D01*
X186247857Y-142564285D01*
X186247857Y-141992857D01*
X186319285Y-141850000D01*
X186462142Y-141778571D01*
X186747857Y-141778571D01*
X186890714Y-141850000D01*
X186962142Y-141992857D01*
X186962142Y-142135714D01*
X186247857Y-142278571D01*
X187605000Y-142778571D02*
X187605000Y-141778571D01*
X187605000Y-142064285D02*
X187676428Y-141921428D01*
X187747857Y-141850000D01*
X187890714Y-141778571D01*
X188033571Y-141778571D01*
D11*
X176640000Y-122114000D02*
X174990000Y-122114000D01*
X176640000Y-132394000D02*
X176640000Y-122114000D01*
X171340000Y-132394000D02*
X176640000Y-132394000D01*
X171340000Y-122114000D02*
X171340000Y-132394000D01*
X172990000Y-122114000D02*
X171340000Y-122114000D01*
X174990000Y-122114000D02*
G75*
G02X172990000Y-122114000I-1000000J0D01*
G01*
D10*
X171061428Y-120054666D02*
X171537619Y-120054666D01*
X170966190Y-120340380D02*
X171299523Y-119340380D01*
X171632857Y-120340380D01*
X171823333Y-119340380D02*
X172394761Y-119340380D01*
X172109047Y-120340380D02*
X172109047Y-119340380D01*
X172585238Y-119673714D02*
X172966190Y-119673714D01*
X172728095Y-119340380D02*
X172728095Y-120197523D01*
X172775714Y-120292761D01*
X172870952Y-120340380D01*
X172966190Y-120340380D01*
X173299523Y-120340380D02*
X173299523Y-119673714D01*
X173299523Y-119340380D02*
X173251904Y-119388000D01*
X173299523Y-119435619D01*
X173347142Y-119388000D01*
X173299523Y-119340380D01*
X173299523Y-119435619D01*
X173775714Y-119673714D02*
X173775714Y-120340380D01*
X173775714Y-119768952D02*
X173823333Y-119721333D01*
X173918571Y-119673714D01*
X174061428Y-119673714D01*
X174156666Y-119721333D01*
X174204285Y-119816571D01*
X174204285Y-120340380D01*
X174585238Y-119673714D02*
X174823333Y-120340380D01*
X175061428Y-119673714D02*
X174823333Y-120340380D01*
X174728095Y-120578476D01*
X174680476Y-120626095D01*
X174585238Y-120673714D01*
X175585238Y-119768952D02*
X175490000Y-119721333D01*
X175442380Y-119673714D01*
X175394761Y-119578476D01*
X175394761Y-119530857D01*
X175442380Y-119435619D01*
X175490000Y-119388000D01*
X175585238Y-119340380D01*
X175775714Y-119340380D01*
X175870952Y-119388000D01*
X175918571Y-119435619D01*
X175966190Y-119530857D01*
X175966190Y-119578476D01*
X175918571Y-119673714D01*
X175870952Y-119721333D01*
X175775714Y-119768952D01*
X175585238Y-119768952D01*
X175490000Y-119816571D01*
X175442380Y-119864190D01*
X175394761Y-119959428D01*
X175394761Y-120149904D01*
X175442380Y-120245142D01*
X175490000Y-120292761D01*
X175585238Y-120340380D01*
X175775714Y-120340380D01*
X175870952Y-120292761D01*
X175918571Y-120245142D01*
X175966190Y-120149904D01*
X175966190Y-119959428D01*
X175918571Y-119864190D01*
X175870952Y-119816571D01*
X175775714Y-119768952D01*
X176870952Y-119340380D02*
X176394761Y-119340380D01*
X176347142Y-119816571D01*
X176394761Y-119768952D01*
X176490000Y-119721333D01*
X176728095Y-119721333D01*
X176823333Y-119768952D01*
X176870952Y-119816571D01*
X176918571Y-119911809D01*
X176918571Y-120149904D01*
X176870952Y-120245142D01*
X176823333Y-120292761D01*
X176728095Y-120340380D01*
X176490000Y-120340380D01*
X176394761Y-120292761D01*
X176347142Y-120245142D01*
M02*
