G04 #@! TF.GenerationSoftware,KiCad,Pcbnew,(5.1.5)-3*
G04 #@! TF.CreationDate,2020-02-22T18:11:06-08:00*
G04 #@! TF.ProjectId,ATTiny85,41545469-6e79-4383-952e-6b696361645f,rev?*
G04 #@! TF.SameCoordinates,Original*
G04 #@! TF.FileFunction,Copper,L2,Bot*
G04 #@! TF.FilePolarity,Positive*
%FSLAX46Y46*%
G04 Gerber Fmt 4.6, Leading zero omitted, Abs format (unit mm)*
G04 Created by KiCad (PCBNEW (5.1.5)-3) date 2020-02-22 18:11:06*
%MOMM*%
%LPD*%
G04 APERTURE LIST*
%ADD10O,1.600000X1.600000*%
%ADD11R,1.600000X1.600000*%
%ADD12C,0.250000*%
G04 APERTURE END LIST*
D10*
X198120000Y-140970000D03*
X198120000Y-143510000D03*
X198120000Y-103890000D03*
X149860000Y-143510000D03*
X198120000Y-106430000D03*
X149860000Y-140970000D03*
X198120000Y-108970000D03*
X149860000Y-138430000D03*
X198120000Y-111510000D03*
X149860000Y-135890000D03*
X198120000Y-114050000D03*
X149860000Y-133350000D03*
X198120000Y-116590000D03*
X149860000Y-130810000D03*
X198120000Y-119130000D03*
X149860000Y-125730000D03*
X198120000Y-121670000D03*
X149860000Y-123190000D03*
X198120000Y-125730000D03*
X149860000Y-120650000D03*
X198120000Y-128270000D03*
X149860000Y-118110000D03*
X198120000Y-130810000D03*
X149860000Y-115570000D03*
X198120000Y-133350000D03*
X149860000Y-113030000D03*
X198120000Y-135890000D03*
X149860000Y-110490000D03*
X198120000Y-138430000D03*
D11*
X149860000Y-107950000D03*
D10*
X198120000Y-101350000D03*
X198120000Y-98810000D03*
X177800000Y-109220000D03*
X170180000Y-116840000D03*
X177800000Y-111760000D03*
X170180000Y-114300000D03*
X177800000Y-114300000D03*
X170180000Y-111760000D03*
X177800000Y-116840000D03*
D11*
X170180000Y-109220000D03*
D12*
X195330000Y-111760000D02*
X198120000Y-108970000D01*
X177800000Y-111760000D02*
X195330000Y-111760000D01*
X195330000Y-114300000D02*
X198120000Y-111510000D01*
X177800000Y-114300000D02*
X195330000Y-114300000D01*
X195330000Y-116840000D02*
X198120000Y-114050000D01*
X177800000Y-116840000D02*
X195330000Y-116840000D01*
X173990000Y-116840000D02*
X176530000Y-119380000D01*
X195330000Y-119380000D02*
X198120000Y-116590000D01*
X176530000Y-119380000D02*
X195330000Y-119380000D01*
X173990000Y-111980000D02*
X171230000Y-109220000D01*
X173990000Y-116840000D02*
X173990000Y-111980000D01*
X177800000Y-109220000D02*
X175260000Y-106680000D01*
X175260000Y-106680000D02*
X168910000Y-106680000D01*
X168910000Y-106680000D02*
X167640000Y-107950000D01*
X167640000Y-107950000D02*
X167640000Y-114935000D01*
X153035000Y-114935000D02*
X149860000Y-118110000D01*
X167640000Y-114935000D02*
X153035000Y-114935000D01*
X153670000Y-116840000D02*
X149860000Y-120650000D01*
X170180000Y-116840000D02*
X153670000Y-116840000D01*
M02*
